<svg xmlns="http://www.w3.org/2000/svg" width="245.373" height="245.37" viewBox="0 0 245.373 245.37">
  <g id="Automate_Processes" data-name="Automate Processes" transform="translate(-9.89 -10)">
    <path id="Path_32" data-name="Path 32" d="M70.832,102.016A31.073,31.073,0,1,0,39.759,70.942,31.11,31.11,0,0,0,70.832,102.016Zm0-56.013A24.939,24.939,0,1,1,45.893,70.942,24.967,24.967,0,0,1,70.832,46Z" transform="translate(61.744 61.744)" fill="#494f98"/>
    <path id="Path_33" data-name="Path 33" d="M39.727,56.609a3.077,3.077,0,0,0-2.092,1.362,67.289,67.289,0,0,0-9.321,22.476,3.069,3.069,0,0,0,2.678,3.7,10.667,10.667,0,0,1,0,21.213,3.069,3.069,0,0,0-2.678,3.7,67.289,67.289,0,0,0,9.321,22.476,3.073,3.073,0,0,0,4.506.721,10.667,10.667,0,0,1,15,15,3.067,3.067,0,0,0,.718,4.5,67.254,67.254,0,0,0,22.476,9.324,3.064,3.064,0,0,0,3.693-2.678,10.668,10.668,0,0,1,21.216,0,3.07,3.07,0,0,0,3.693,2.678,67.3,67.3,0,0,0,22.476-9.324,3.069,3.069,0,0,0,.718-4.506,10.665,10.665,0,0,1,15-15,3.031,3.031,0,0,0,2.414.641,3.073,3.073,0,0,0,2.092-1.362,67.239,67.239,0,0,0,9.324-22.476,3.069,3.069,0,0,0-2.678-3.7,10.665,10.665,0,0,1,0-21.209,3.069,3.069,0,0,0,2.678-3.7,67.328,67.328,0,0,0-9.324-22.476,3.073,3.073,0,0,0-4.506-.721,10.665,10.665,0,0,1-15-15,3.069,3.069,0,0,0-.718-4.506,67.359,67.359,0,0,0-22.476-9.324,3.064,3.064,0,0,0-3.693,2.678,10.668,10.668,0,0,1-21.216,0,3.064,3.064,0,0,0-3.693-2.678,67.254,67.254,0,0,0-22.476,9.324,3.067,3.067,0,0,0-.718,4.5,10.667,10.667,0,0,1-15,15A3.1,3.1,0,0,0,39.727,56.609Zm20.986,4.217A16.761,16.761,0,0,0,63.8,41.3a61.035,61.035,0,0,1,14.842-6.159,16.812,16.812,0,0,0,31.988,0A61.115,61.115,0,0,1,125.469,41.3,16.809,16.809,0,0,0,148.08,63.915a61.023,61.023,0,0,1,6.162,14.839,16.81,16.81,0,0,0,0,31.988,60.973,60.973,0,0,1-6.162,14.839,16.809,16.809,0,0,0-22.611,22.611,61.065,61.065,0,0,1-14.839,6.159,16.812,16.812,0,0,0-31.988,0A61.086,61.086,0,0,1,63.8,148.192a16.809,16.809,0,0,0-22.611-22.611,60.994,60.994,0,0,1-6.159-14.839,16.81,16.81,0,0,0,0-31.984,60.994,60.994,0,0,1,6.159-14.839A16.76,16.76,0,0,0,60.712,60.827Z" transform="translate(37.942 37.937)" fill="#494f98"/>
    <path id="Path_34" data-name="Path 34" d="M59.982,48.606V62.651a3.067,3.067,0,0,0,6.134,0V48.606a19.526,19.526,0,1,0-6.134,0ZM63.05,16.134a13.3,13.3,0,1,1-13.391,13.3A13.362,13.362,0,0,1,63.05,16.134Z" transform="translate(69.527)" fill="#494f98"/>
    <path id="Path_35" data-name="Path 35" d="M39.123,58.807h.058a19.4,19.4,0,0,0,11.428-3.754l9.928,9.931a3.067,3.067,0,1,0,4.337-4.337l-9.928-9.931A19.39,19.39,0,0,0,39.31,19.845h-.055A19.594,19.594,0,0,0,19.735,39.364,19.373,19.373,0,0,0,39.123,58.807ZM29.811,29.921a13.352,13.352,0,0,1,9.459-3.941h.04A13.237,13.237,0,0,1,52.566,39.272a13.457,13.457,0,0,1-13.4,13.4h-.04A13.242,13.242,0,0,1,25.869,39.38,13.331,13.331,0,0,1,29.811,29.921Z" transform="translate(20.351 20.351)" fill="#494f98"/>
    <path id="Path_36" data-name="Path 36" d="M29.327,82.69A19.479,19.479,0,0,0,48.5,66.229H62.544a3.067,3.067,0,1,0,0-6.134H48.5a19.434,19.434,0,1,0-19.173,22.6Zm0-32.923a13.395,13.395,0,1,1-13.3,13.394A13.362,13.362,0,0,1,29.327,49.767Z" transform="translate(0 69.525)" fill="#494f98"/>
    <path id="Path_37" data-name="Path 37" d="M64.876,66.044a3.064,3.064,0,0,0-4.337,0L50.61,75.976a19.381,19.381,0,0,0-11.428-3.754h-.058A19.379,19.379,0,0,0,19.733,91.667a19.594,19.594,0,0,0,19.519,19.519h.055A19.4,19.4,0,0,0,54.944,80.316l9.928-9.931A3.065,3.065,0,0,0,64.876,66.044ZM48.69,101.172a13.168,13.168,0,0,1-9.379,3.877h-.04a13.457,13.457,0,0,1-13.4-13.4A13.242,13.242,0,0,1,39.127,78.356h.04a13.457,13.457,0,0,1,13.4,13.4A13.177,13.177,0,0,1,48.69,101.172Z" transform="translate(20.347 113.993)" fill="#494f98"/>
    <path id="Path_38" data-name="Path 38" d="M63.05,71.833A3.066,3.066,0,0,0,59.982,74.9V88.945a19.529,19.529,0,1,0,6.134,0V74.9A3.068,3.068,0,0,0,63.05,71.833Zm13.394,36.288a13.393,13.393,0,1,1-13.394-13.3A13.362,13.362,0,0,1,76.444,108.121Z" transform="translate(69.527 127.819)" fill="#494f98"/>
    <path id="Path_39" data-name="Path 39" d="M77.785,105.509A19.261,19.261,0,0,0,91.5,111.184h.055a19.483,19.483,0,1,0,.129-38.965H91.63A19.4,19.4,0,0,0,80.2,75.973L70.27,66.044a3.067,3.067,0,0,0-4.337,4.337l9.931,9.928a19.426,19.426,0,0,0,1.92,25.2ZM91.648,78.356h.04a13.166,13.166,0,0,1,9.379,3.877,13.412,13.412,0,0,1-9.524,22.817H91.5a13.179,13.179,0,0,1-9.379-3.877,13.412,13.412,0,0,1,9.524-22.817Z" transform="translate(113.991 113.993)" fill="#494f98"/>
    <path id="Path_40" data-name="Path 40" d="M88.836,60.094H74.791a3.067,3.067,0,1,0,0,6.134H88.836a19.529,19.529,0,1,0,0-6.134Zm19.173-10.327a13.395,13.395,0,1,1-13.3,13.394A13.362,13.362,0,0,1,108.009,49.767Z" transform="translate(127.821 69.525)" fill="#494f98"/>
    <path id="Path_41" data-name="Path 41" d="M68.1,65.882a3.059,3.059,0,0,0,2.168-.9L80.2,55.055a19.4,19.4,0,0,0,11.428,3.754h.055a19.483,19.483,0,0,0-.129-38.965,19.7,19.7,0,0,0-13.769,5.674,19.422,19.422,0,0,0-1.92,25.2l-9.931,9.928a3.064,3.064,0,0,0,0,4.337A3.025,3.025,0,0,0,68.1,65.882ZM82.118,29.858A13.168,13.168,0,0,1,91.5,25.981h.04A13.412,13.412,0,0,1,101.06,48.8a13.169,13.169,0,0,1-9.379,3.877h-.04a13.412,13.412,0,0,1-9.524-22.817Z" transform="translate(113.996 20.349)" fill="#494f98"/>
  </g>
</svg>
