<svg xmlns="http://www.w3.org/2000/svg" width="292.217" height="342.074" viewBox="0 0 292.217 342.074">
  <g id="Ensure_Timely_Payments" data-name="Ensure Timely Payments" transform="translate(-8.276 -1.498)">
    <path id="Path_30" data-name="Path 30" d="M225.061,122.671a4.005,4.005,0,0,1,5.668,0l8.062,8.062a7.654,7.654,0,0,1,3.343,0l5.837-5.837a4.009,4.009,0,1,1,5.672,5.668L247.81,136.4a7.533,7.533,0,1,1-14.687,0l-8.059-8.059a4.005,4.005,0,0,1,0-5.668Zm-9.534-3.862,2.387,2.383a4.009,4.009,0,1,0,5.668-5.664l-2.387-2.387a4.009,4.009,0,0,0-5.668,5.668Zm44.2,44.2a4.009,4.009,0,0,0,5.668-5.668l-2.387-2.383a4.009,4.009,0,1,0-5.668,5.668ZM240.454,114.2a4.009,4.009,0,0,0,4.005-4.009v-3.373a4.009,4.009,0,0,0-8.015,0v3.373A4.009,4.009,0,0,0,240.454,114.2Zm0,47.745a4.009,4.009,0,0,0-4.009,4.009v3.377a4.009,4.009,0,0,0,8.015,0v-3.376A4.009,4.009,0,0,0,240.454,161.945Zm-22.55-6.988-2.387,2.387a4.009,4.009,0,0,0,5.668,5.668l2.387-2.383a4.009,4.009,0,0,0-5.657-5.675Zm42.276-32.588a3.983,3.983,0,0,0,2.832-1.177l2.387-2.383a4.009,4.009,0,0,0-5.668-5.668l-2.387,2.383a4.046,4.046,0,0,0,2.836,6.845ZM216.59,138.074a4.009,4.009,0,0,0-4.009-4.009h-3.373a4.009,4.009,0,1,0,0,8.018h3.373a4.009,4.009,0,0,0,4.009-4.009Zm47.745,0a4.009,4.009,0,0,0,4.009,4.009h3.373a4.009,4.009,0,1,0,0-8.018h-3.373a4.009,4.009,0,0,0-4.009,4.009Zm33.978,77c-16.919,8.669-44.038,32.033-80.55,69.439a41,41,0,0,1-30.951,13.274c-22.389-.449-43.858-11.91-67.287-12.417-.416,0-2.516.169-8.261,4.171a9.25,9.25,0,0,1-.9,13.135l-9.607,8.243,1.578,1.839a4.046,4.046,0,0,1-.474,5.686L76.142,339.914a15.231,15.231,0,0,1-9.912,3.656,15.554,15.554,0,0,1-13.267-7.117l-42.1-64.418a15.569,15.569,0,0,1,2.766-20.351L31.287,236.14a4.046,4.046,0,0,1,5.69.4l1.471,1.732,9.607-8.243a9.291,9.291,0,0,1,13.065,1.052L70.827,221a92.556,92.556,0,0,1,19.862-17.677c-13.653-39.988,11.13-106.3,53.248-121.719a15.249,15.249,0,0,1,3.421-16.4,6.62,6.62,0,0,0,2.339-4.859,8.982,8.982,0,0,1,3.7-6.709,87.977,87.977,0,0,0-17.144-21.771c-4.984-4.469-12.421-9.2-11.369-16.051.706-4.844,5.333-8.875,15-13.072,9.239-4.013,15.4,2.652,19.086,6.621a20.163,20.163,0,0,0,3.465,3.27c19.321-11.443,14.58-11.424,33.875,0a20.347,20.347,0,0,0,3.468-3.274c3.678-3.98,9.846-10.641,19.082-6.621,9.666,4.2,14.289,8.228,15,13.072,1.052,6.867-6.385,11.582-11.369,16.051a88.5,88.5,0,0,0-17.714,22.8,10.034,10.034,0,0,1,2.365,5.517c12.307-9.626,29.3,16.68,38.642,2.575a4.009,4.009,0,0,1,6.621,4.506,15.639,15.639,0,0,1-13.436,7.8c-6.753,0-13.841-3.91-19.678-7.128a11.523,11.523,0,0,0-5.5-1.861c7.478,3.174,8.9,13.745,17.655,13.307a4.013,4.013,0,1,1-.21,8.018c-10-.162-13.521-6.065-17.372-10.9a17.286,17.286,0,0,1-.736,4.469,73.194,73.194,0,0,1,22.392,13.469c40.882-4.782,65.445,45.583,35.832,74.894a94.982,94.982,0,0,1-1.28,26.115,29.487,29.487,0,0,1,16.327,1.023,24.673,24.673,0,0,1,13.87,13.7,4.005,4.005,0,0,1-1.949,4.9Zm-34.662-39.672a44.189,44.189,0,0,1-40.514,3.068,45.8,45.8,0,0,1-9.534,16.46c2.6,7.4-1.015,14.293-8.574,18.232-8.581,4.5-20.906,10.858-35.6,17.806l13.035,2.663c8.5,1.732,16.353-2.049,25.011-6.786,5.981-3.042,48.415-27.122,53.774-28.785a79.651,79.651,0,0,0,2.406-22.657ZM180.96,158.532v-2.8a1.6,1.6,0,0,0-3.2,0v2.8a1.622,1.622,0,0,0,1.6,1.6,9.794,9.794,0,0,1,2.038.217,3.969,3.969,0,0,1-.438-1.817Zm-3.634,9.4a11.814,11.814,0,0,1,.434,4.623,1.6,1.6,0,1,0,3.2,0V169.75a1.622,1.622,0,0,0-1.6-1.6,9.494,9.494,0,0,1-2.034-.217Zm6.043,13.977a37.311,37.311,0,0,1,11.81-.32,23.477,23.477,0,0,0,7.43-21.175,43.605,43.605,0,0,1-4.414-10.4,23.54,23.54,0,1,0-28.689,35.523c1.975-.633,3.936-1.236,5.885-1.784-.07-.368-.029-2.06-.04-2.457a9.633,9.633,0,0,1-5.609-8.732v-2.806a4.013,4.013,0,0,1,3.31-3.95,9.6,9.6,0,0,1-3.31-7.268v-2.81A9.626,9.626,0,0,1,175.351,147v-1.924a4.009,4.009,0,0,1,8.018,0V147a9.618,9.618,0,0,1,5.609,8.732v2.8a4.009,4.009,0,0,1-3.31,3.95,9.607,9.607,0,0,1,3.31,7.268v2.806a9.626,9.626,0,0,1-5.609,8.732Zm-23.794,6.874a31.573,31.573,0,0,1,36.972-51.1,44.386,44.386,0,0,1,.647-7.143c-38.881-19.579-74.809,28.9-44.814,60.387,2.428-.658,4.826-1.394,7.194-2.152Zm44.027-4.414a27.284,27.284,0,0,1,5.293,3.741,37.745,37.745,0,0,0,7.055-13.55,43.94,43.94,0,0,1-5.583-4.48,31.293,31.293,0,0,1-6.764,14.286Zm11.472-71.7a35.925,35.925,0,1,0,50.8,50.813C298.2,128.471,250.061,80.328,215.075,112.67Zm-9.931-40.345h-11.56a4.009,4.009,0,0,1,0-8.018h6.22c-.412-1.471-.5-2.575-.787-3.877a5.636,5.636,0,0,0-.736-.04H158.557a5.592,5.592,0,0,0-.736.04c-.283,1.306-.368,2.4-.787,3.877h6.22a4.009,4.009,0,0,1,0,8.018H151.723c-1.151,1.765-1.214,8.485,2.019,8.805h49.379C206.354,80.806,206.284,74.094,205.144,72.325ZM161.8,52.389h4.329A58.018,58.018,0,0,0,159.3,35.838a4.01,4.01,0,1,1,6.742-4.344,68.339,68.339,0,0,1,8.346,20.9H185.01a68.248,68.248,0,0,1,8.342-20.9,4.009,4.009,0,1,1,6.746,4.329,58.228,58.228,0,0,0-6.827,16.551h3.652A96.988,96.988,0,0,1,219.97,23.446c2.3-1.927,6.135-5.149,5.94-6.488-.037-.265-.655-2.7-10.255-6.871-8.265-4.013-12.745,15.448-23.246,9.563-4.675-2.527-9.537-6.176-13.05-7.551a30.635,30.635,0,0,0-5.65,3.108c-1.927,1.192-4.322,2.674-7.4,4.443-10.508,5.885-14.974-13.565-23.246-9.563-9.6,4.167-10.214,6.621-10.255,6.871-.191,1.335,3.645,4.561,5.94,6.488A96.76,96.76,0,0,1,161.8,52.389ZM97.876,199.458c15.717-7.154,29.98-3.454,45.608-6.433-30.212-38.469,11.5-91.051,55.848-70.38a44.159,44.159,0,0,1,26.229-25.9,62.722,62.722,0,0,0-17.372-9.015,9.563,9.563,0,0,1-5.068,1.416H153.728a9.7,9.7,0,0,1-4.377-1.026C110.087,100.521,86.168,162.607,97.876,199.458ZM93.594,314.881l-60.06-70.042L18.929,257.712a7.61,7.61,0,0,0-1.35,9.931l42.085,64.422A7.669,7.669,0,0,0,71,333.76Zm11.674-20.016L55,236.243a1.21,1.21,0,0,0-.831-.416,1.232,1.232,0,0,0-.883.283l-9.611,8.243,51.861,60.483,9.6-8.239a1.236,1.236,0,0,0,.129-1.718ZM291.075,209.9c-7.93-10.446-20.23-8.412-34.49-.8l-45.274,24.779c-9.7,5.307-19.321,9.883-30.462,7.61l-23.308-4.756-6.253,4.3a4.009,4.009,0,0,1-4.984-6.253,29.506,29.506,0,0,1,8.827-6.032c19.347-8.791,35.6-17.151,46.145-22.679,5.4-2.674,7.279-7.691,1.839-12.347-9.25-7.809-20.965-3.947-35.766.942a126.4,126.4,0,0,1-32.982,7.54c-21.9,1.125-34.32-2.071-57.592,24.15-.04.048-.085.092-.129.14l-10.3,10.7,39.661,46.234c6.032-4.3,10.365-6.194,13.8-6.065a168.6,168.6,0,0,1,37.969,7.007c21.642,5.826,38.738,10.427,54.241-5.451,34.714-35.556,61.277-58.743,79.057-69.02Z" transform="translate(0 0)" fill="#494f98"/>
  </g>
</svg>
