<svg xmlns="http://www.w3.org/2000/svg" width="261.492" height="231.638" viewBox="0 0 261.492 231.638">
  <g id="Manage_Payments" data-name="Manage Payments" transform="translate(-4.004 -9.254)">
    <path id="Path_31" data-name="Path 31" d="M228.772,227.283l-.1.2-.044.056-.033.056-.5.877,9.926,5.729,20.763-35.973-9.926-5.729q-10.059,17.371-20.085,34.785ZM168.437,97.3a2.842,2.842,0,1,1,0,5.685h-5.551a2.842,2.842,0,1,1,0-5.685Zm-65.752,0a2.842,2.842,0,1,1,0,5.685H97.133a2.842,2.842,0,0,1,0-5.685Zm29.788-14.667a16.945,16.945,0,1,1-11.98,4.963A16.9,16.9,0,0,1,132.473,82.635Zm7.961,8.982a11.258,11.258,0,1,0,3.3,7.961A11.237,11.237,0,0,0,140.433,91.617ZM98.7,67.879h85.37a2.848,2.848,0,0,1,2.842,2.842,2.843,2.843,0,0,0,2.842,2.842,2.848,2.848,0,0,1,2.842,2.842v46.356a2.848,2.848,0,0,1-2.842,2.842,2.843,2.843,0,0,0-2.842,2.842,2.848,2.848,0,0,1-2.842,2.842H80.9a2.848,2.848,0,0,1-2.842-2.842,2.875,2.875,0,0,0-.833-2.01,2.776,2.776,0,0,0-2.01-.833,2.848,2.848,0,0,1-2.842-2.842V77.574H64.165v58.757a2.862,2.862,0,0,0,2.876,2.876H197.923a2.862,2.862,0,0,0,2.876-2.876V62.842a2.862,2.862,0,0,0-2.876-2.876H96.3a11.047,11.047,0,0,1,2.187,6.573,10.5,10.5,0,0,1-.067,1.188ZM87.438,71.9a5.37,5.37,0,0,0,3.786-9.16,5.433,5.433,0,0,0-3.786-1.566H62.656a2.844,2.844,0,0,1-.133-5.685l40.16-5.285a19.953,19.953,0,0,1,6.417.167,19.583,19.583,0,0,1,6.007,2.309l2.765,1.588H138.7L98.441,32.061A13.263,13.263,0,0,0,94.9,30.706a18.256,18.256,0,0,0-3.986-.389l-41.18-.089a2.918,2.918,0,0,1-1.277-.3l-4.1-2.065L28.271,55.722l5.862,3.164a2.786,2.786,0,0,1,1.177,1.2c2.4,4.608,6.44,7.406,11.159,9.115,5.007,1.821,10.825,2.454,16.321,2.687H87.45Zm-7.172,5.674a8.452,8.452,0,0,1-1.8,1.021l-.422.167v41.658a8.934,8.934,0,0,1,3.187,2.01,8.6,8.6,0,0,1,2.01,3.187h98.474a8.62,8.62,0,0,1,5.2-5.185V78.783a8.6,8.6,0,0,1-3.187-2.01,8.691,8.691,0,0,1-2.01-3.187H95.932c-.222.255-.444.511-.688.744a11,11,0,0,1-7.794,3.264H80.266Zm70.172-23.294h47.476a8.586,8.586,0,0,1,8.56,8.56v73.489a8.586,8.586,0,0,1-8.56,8.56H67.031a8.586,8.586,0,0,1-8.56-8.56V77.315A54.327,54.327,0,0,1,44.526,74.55C38.83,72.5,33.878,69.087,30.7,63.5L25.44,60.66l-1.31,2.276a2.832,2.832,0,0,1-3.864,1.044L5.421,55.42a2.832,2.832,0,0,1-1.033-3.875l23.6-40.882A2.838,2.838,0,0,1,31.857,9.63l14.834,8.56a2.832,2.832,0,0,1,1.044,3.864l-.522.91,3.22,1.621,40.492.089a24.227,24.227,0,0,1,5.207.522,19.008,19.008,0,0,1,5.052,1.9L150.47,54.286ZM41.4,21.668l-9.915-5.729L10.707,51.911l9.926,5.729C27.551,45.661,34.523,33.669,41.4,21.668ZM241.217,194.407l-5.851-3.164a2.822,2.822,0,0,1-1.177-1.188c-2.4-4.608-6.451-7.417-11.159-9.115-4.974-1.8-10.736-2.443-16.2-2.687l-24.782.011a5.345,5.345,0,0,0-3.786,1.566,5.433,5.433,0,0,0-1.566,3.786,5.345,5.345,0,0,0,5.352,5.352h24.782a2.844,2.844,0,0,1,.133,5.685l-40.16,5.285a19.624,19.624,0,0,1-6.417-.167,20.174,20.174,0,0,1-6.007-2.309q-16.022-9.243-32.033-18.5a5.41,5.41,0,0,0-7.339,1.965l-.067.111a5.419,5.419,0,0,0-.455,3.953,5.313,5.313,0,0,0,2.432,3.231l54.139,29.868a13.263,13.263,0,0,0,3.542,1.355,18.486,18.486,0,0,0,3.986.378l41.18.1a2.918,2.918,0,0,1,1.277.3l4.1,2.065,16.088-27.857ZM222.3,227.182l-3.22-1.621-40.492-.089a23.349,23.349,0,0,1-5.207-.522,18.634,18.634,0,0,1-5.052-1.9l-54.193-29.9a11.057,11.057,0,0,1-4.13-14.9l.089-.178a11.049,11.049,0,0,1,14.789-4.186,11.063,11.063,0,0,1,15.844-5.718l.522.3a11.238,11.238,0,0,1,4.974-2.931,11.084,11.084,0,0,1,8.416,1.044l18.509,10.492a10.928,10.928,0,0,1,1.1-1.277,11.059,11.059,0,0,1,7.805-3.242l24.9.011c5.985.266,12.358.977,18.009,3.02,5.7,2.065,10.659,5.463,13.834,11.059l5.252,2.842,1.321-2.287a2.832,2.832,0,0,1,3.875-1.033l14.834,8.56a2.832,2.832,0,0,1,1.033,3.875l-23.6,40.882a2.838,2.838,0,0,1-3.864,1.033l-14.834-8.56a2.832,2.832,0,0,1-1.044-3.864l.522-.91Zm-75.743-55.7,24.6,13.968A11.156,11.156,0,0,1,171,183.6a10.506,10.506,0,0,1,.067-1.188l-19.219-10.9a5.387,5.387,0,0,0-4.1-.511,5.218,5.218,0,0,0-1.188.477Zm-16.6,5.329,27.258,15.733a13.818,13.818,0,0,0,4.275,1.643,14.034,14.034,0,0,0,4.586.122l7.483-.988q-17.8-10.109-35.618-20.219a5.443,5.443,0,0,0-4.1-.522,5.334,5.334,0,0,0-3.242,2.476,5.829,5.829,0,0,0-.633,1.754Z" transform="translate(0 0)" fill="#494f98"/>
  </g>
</svg>
