<svg xmlns="http://www.w3.org/2000/svg" width="314.913" height="288.577" viewBox="0 0 314.913 288.577">
  <g id="Negotiate_and_Close_Deals" data-name="Negotiate and Close Deals" transform="translate(-1.051 -5.144)">
    <path id="Path_28" data-name="Path 28" d="M305.034,5.145H129.393a10.937,10.937,0,0,0-10.932,10.919V28.831l-12.779.013A10.918,10.918,0,0,0,94.763,39.762V171.549l-21.4,7.476a4.423,4.423,0,0,0-1.646-1.143l-12.729-4.925v-.05a4.286,4.286,0,0,0-2.262-5.076l-16.674-7.992a4.3,4.3,0,0,0-3.279-.176,4.219,4.219,0,0,0-2.438,2.186L1.477,230.166a4.29,4.29,0,0,0-.163,3.343,4.335,4.335,0,0,0,2.3,2.438L31.6,248.3v-.013a4.274,4.274,0,0,0,3.531-.025,4.329,4.329,0,0,0,2.312-2.676l1.244-4.172,7.024,3.141h-.013a4.3,4.3,0,0,0,5.768-2.375l.126-.339c2.036,1.395,3.983,2.752,5.918,4.059-2.375,3.719-5.064,9.4-2.764,13.307h-.013a15.438,15.438,0,0,0,9.4,8.042,10.741,10.741,0,0,0,2.111.214,9.968,9.968,0,0,0,3.38-.591,8.856,8.856,0,0,0,3.883,7.137l6.32,4.3a8.632,8.632,0,0,0,4.925,1.546c.188,0,.39-.025.591-.038a8.635,8.635,0,0,0,3.757,4.209l3.443,1.948v.013a9.045,9.045,0,0,0,3.858,1.143,8.742,8.742,0,0,0,3.631,3.908l2.714,1.533a8.914,8.914,0,0,0,12.075-3.242l.88-1.508c0-.013.188-.377.427-.968a19.526,19.526,0,0,0,9.374,3.393,6.315,6.315,0,0,0,3.267-.817,14.637,14.637,0,0,0,6.031-5.855,9.607,9.607,0,0,0,8.9.44,13.231,13.231,0,0,0,7.024-8.23c.025-.113.038-.226.063-.339a10.579,10.579,0,0,0,8.582.038,15.813,15.813,0,0,0,8.444-9.738,2.323,2.323,0,0,0,.05-.289,8.8,8.8,0,0,0,6.534-.578H281.333a10.932,10.932,0,0,0,10.919-10.907V241.2h12.779a10.948,10.948,0,0,0,10.932-10.932V16.064A10.937,10.937,0,0,0,305.032,5.144Zm2.35,10.919v34L271.031,13.713h34a2.362,2.362,0,0,1,2.35,2.35Zm-42.41,3.719,36.34,36.352h-36.34Zm-89.693,166.8a10.65,10.65,0,0,0,3.091-.188l15.858,40.975-17.466,12.8a293.846,293.846,0,0,0-21.16-22.354c-18.672-17.579-26.488-18.66-30.748-17.943l-25.395,4.26c-13.583,1.458-16.8-3.782-18.031-7.853v-.013a.372.372,0,0,1-.025-.126c.013-.038.038-.075.05-.113a.692.692,0,0,1,.088-.113.372.372,0,0,1,.126-.025,403.664,403.664,0,0,0,47.875-12.49,5.848,5.848,0,0,1,2.375-.264Zm63.029,38.237-19.464,8.582-19.137-64.5,9.512-4.561ZM208.3,228.054l-3.946,1.759-19.539-50.538,8.092-3.129ZM103.332,39.749l.013.013a2.343,2.343,0,0,1,2.337-2.35h12.767l.013,129.249a23.139,23.139,0,0,0-12.365.93l-2.752.968ZM30.6,238.483l-19.476-8.595,29.1-60.478,9.512,4.561Zm14.475-3.606-3.946-1.759L56.54,181.209l8.092,3.129Zm20.808,23.962c-.565-.113-1.9-.993-3.443-3.455v.013a17.094,17.094,0,0,1,2.161-4.662q3.525,2.375,6.936,4.662c-.792.641-1.6,1.269-2.4,1.9-2.124,1.621-2.739,1.659-3.242,1.558Zm12.427,8.092a.305.305,0,0,1-.1-.415l2.79-4.8.591-.9c1.483-2.249,2.877-4.373,4.4-6.534,1.244-1.734,1.7-1.973,1.985-1.985s1.608.415,3.556,2.35l.013-.013a23.848,23.848,0,0,1-2.212,9.11l-4.285,7.376a.2.2,0,0,1-.075.1.446.446,0,0,1-.113.05h-.126a.243.243,0,0,1-.113-.063Zm14.9,9.575h-.013a.4.4,0,0,1-.038-.113c0-.038-.025-.113.113-.389a82.282,82.282,0,0,1,6.056-9.914,7.635,7.635,0,0,1,.892-1.106,6.148,6.148,0,0,1,1.747,1.244,20.592,20.592,0,0,1-1.671,6.358l-2.174,4.021c-.44.653-.854,1.319-1.244,1.96H96.9a.3.3,0,0,1-.151-.038l-3.443-1.948v-.013a.217.217,0,0,1-.075-.075Zm15.028,7-.88,1.508a.318.318,0,0,1-.415.113l-2.714-1.533v-.013a1.14,1.14,0,0,1-.1-.063l-.025-.063v-.013a7.118,7.118,0,0,0,.528-.829l.867-1.608c.628-.93,1.307-1.9,1.935-2.79l.276-.4.013.013a8.946,8.946,0,0,1,.679-.867,6.884,6.884,0,0,1,1.294.955,18.647,18.647,0,0,1-1.445,5.579Zm16.825-1.872h-.013a20.388,20.388,0,0,1-6.145-3.217c-.214-.188-.44-.364-.653-.553a7.412,7.412,0,0,0-1.747-5.277,13.886,13.886,0,0,0-6.157-4.034,10.6,10.6,0,0,0-.792-6.609l11.472,11.145s4.486,4.863,4.963,5.416l.025.025a7.658,7.658,0,0,1,1.018,1.357,6.483,6.483,0,0,1-1.96,1.734Zm45.35-24.377h-.013a16.439,16.439,0,0,1-4.674-1.822l-.063-.038v-.013a27.67,27.67,0,0,1-5.466-3.694L133.919,225h-.013a4.291,4.291,0,0,0-6.094,6.032l26.3,26.664c.628.641,3.217,2.865,3.518,3.2,1.809,2.1,1.872,2.714,1.772,3.167-.113.553-1.081,2.01-3.933,3.745l.013.013a26.23,26.23,0,0,1-9.914-5l-2.89-2.752L121.48,239.3l-.013-.013a4.288,4.288,0,0,0-5.994,6.132l17.893,17.529c.138.176,3.066,3.016,3.066,3.016a24.627,24.627,0,0,1,2.1,2.865,30.357,30.357,0,0,0,2.614,3.581,6.434,6.434,0,0,1,1.181,1.659s-.364.917-2.488,2.249a28.875,28.875,0,0,1-9.361-5.692c-.842-.917-3.317-3.569-3.38-3.619l-13.721-13.319h-.013a4.285,4.285,0,0,0-6.66,5.29,10.763,10.763,0,0,0-6.622-2.639,8.983,8.983,0,0,0-1.935-7.238,14.349,14.349,0,0,0-10.492-5.416,11.309,11.309,0,0,0-8.62,5.579l-.39.553c-7.527-5.026-15.166-10.178-23.887-16.209L72.21,188.5l36.7-12.817v-.013a14.755,14.755,0,0,1,9.562-.188l3.845,1.169a374.793,374.793,0,0,1-42.194,10.781,8.9,8.9,0,0,0-6.911,11.309c2.262,7.451,8.834,15.92,27.292,13.885l.239-.038,25.533-4.235c.591-.1,6.207-.49,23.447,15.732a267.42,267.42,0,0,1,22.944,24.628l.025.025c1.86,2.312,2.111,3.192,1.948,4.059s-1.382,2.626-4.209,4.461Zm113.265-3.292h-.013a2.343,2.343,0,0,1-2.35,2.337H182.5a10.476,10.476,0,0,0,.565-1.948,11.1,11.1,0,0,0-1.169-7.3l8.017-5.855h22.366a4.268,4.268,0,0,0,5.579,2.023l4.624-2.036,61.205.013Zm21.349-21.349H241.919l3.921-1.721v-.013a4.279,4.279,0,0,0,2.287-2.438,4.236,4.236,0,0,0-.163-3.343L231.214,190.3h55.627a4.293,4.293,0,1,0,0-8.582H227.093L218.109,163h68.732a4.287,4.287,0,1,0,0-8.57H212.052a4.036,4.036,0,0,0-1.646,0H147.592a4.287,4.287,0,1,0,0,8.57h44.671a4.3,4.3,0,0,0-1.822,4.838l.013.063-12.729,4.925a4.285,4.285,0,0,0-2.588,5.152l-25.872-2.061-22.228-6.773V16.063a2.36,2.36,0,0,1,2.362-2.35h127V60.421a4.293,4.293,0,0,0,4.3,4.285h46.694V230.268a2.362,2.362,0,0,1-2.35,2.35ZM140.942,57.93l-.013-.013a4.29,4.29,0,0,1,4.3-4.285H189a4.293,4.293,0,0,1,0,8.582H145.24a4.285,4.285,0,0,1-4.285-4.3Zm4.285,22.492v-.013a4.271,4.271,0,0,1-3.116-1.206,4.3,4.3,0,0,1,3.116-7.376h1.47a4.293,4.293,0,0,1,0,8.582Zm16.021-8.582h35.687l-.013-.013a4.3,4.3,0,0,1,3.116,7.376,4.271,4.271,0,0,1-3.116,1.206H161.261a4.271,4.271,0,0,1-3.116-1.206,4.3,4.3,0,0,1,3.116-7.376Zm129.863,32.319v-.013a4.279,4.279,0,0,1-4.272,4.285H193.981a4.286,4.286,0,0,1,0-8.569h92.858a4.29,4.29,0,0,1,4.285,4.285Zm-112.586-4.3a4.287,4.287,0,1,1,0,8.57H147.589a4.287,4.287,0,1,1,0-8.57ZM236.5,131.438a4.282,4.282,0,0,1-4.285,4.285H147.564a4.285,4.285,0,0,1-3.1-7.363,4.325,4.325,0,0,1,3.1-1.219h84.652a4.269,4.269,0,0,1,4.285,4.3Zm54.62,0a4.29,4.29,0,0,1-4.285,4.285H247.682a4.293,4.293,0,0,1-3.116-7.363,4.334,4.334,0,0,1,3.116-1.219h39.154a4.3,4.3,0,0,1,4.285,4.3ZM30.413,215.527a7.038,7.038,0,0,1-4.574,12.189H25.6a7.046,7.046,0,1,1,4.813-12.188Zm186.381-.151a7.048,7.048,0,1,1,7.037,7.288h-.239a7.065,7.065,0,0,1-6.8-7.288Z" transform="translate(0)" fill="#494f98"/>
  </g>
</svg>
