<svg xmlns="http://www.w3.org/2000/svg" width="347.724" height="321.656" viewBox="0 0 347.724 321.656">
  <g id="noun-products-2804222" transform="translate(396.8 313.876)">
    <g id="Group_42" data-name="Group 42" transform="translate(-396.8 -313.876)">
      <g id="Group_23" data-name="Group 23" transform="translate(85.11 0)">
        <g id="Group_16" data-name="Group 16" transform="translate(0 44.98)">
          <g id="Group_15" data-name="Group 15">
            <path id="Path_43" data-name="Path 43" d="M357.645,327.5q-14.457-7.609-28.877-15.254-22.881-12.065-45.761-24.167c-3.478-1.848-6.993-3.7-10.471-5.544.616,1.051,1.2,2.1,1.812,3.116v-89.82c-1.812,1.051-3.623,2.1-5.435,3.116q14.457,7.609,28.877,15.254,22.881,12.12,45.761,24.2c3.478,1.848,6.993,3.7,10.471,5.544-.616-1.051-1.2-2.1-1.812-3.116v89.784c0,4.674,7.246,4.674,7.246,0V240.831a3.578,3.578,0,0,0-1.812-3.116q-14.457-7.609-28.877-15.254-22.881-12.12-45.761-24.2c-3.478-1.848-6.993-3.7-10.471-5.544a3.648,3.648,0,0,0-5.435,3.116v89.82a3.578,3.578,0,0,0,1.812,3.116q14.457,7.609,28.877,15.254,22.881,12.065,45.761,24.167c3.478,1.848,6.993,3.7,10.471,5.544C358.116,335.9,361.775,329.673,357.645,327.5Z" transform="translate(-267.1 -192.268)" fill="#494f98"/>
          </g>
        </g>
        <g id="Group_18" data-name="Group 18" transform="translate(85.11 44.98)">
          <g id="Group_17" data-name="Group 17">
            <path id="Path_44" data-name="Path 44" d="M588.958,282.535q-14.457,7.609-28.877,15.254-22.881,12.065-45.8,24.167c-3.478,1.848-6.993,3.7-10.471,5.544,1.812,1.051,3.623,2.1,5.435,3.116V240.831c-.616,1.051-1.2,2.1-1.812,3.116q14.457-7.609,28.877-15.254,22.881-12.12,45.8-24.2c3.478-1.848,6.993-3.7,10.471-5.544-1.812-1.051-3.623-2.1-5.435-3.116v89.82c0,4.674,7.246,4.674,7.246,0v-89.82a3.648,3.648,0,0,0-5.435-3.116q-14.457,7.609-28.877,15.254-22.881,12.12-45.8,24.2c-3.478,1.848-6.993,3.7-10.471,5.544A3.578,3.578,0,0,0,502,240.831v89.784a3.648,3.648,0,0,0,5.435,3.116q14.457-7.609,28.877-15.254,22.881-12.065,45.8-24.167c3.478-1.848,6.993-3.7,10.471-5.544C596.711,286.593,593.052,280.324,588.958,282.535Z" transform="translate(-502 -192.268)" fill="#494f98"/>
          </g>
        </g>
        <g id="Group_20" data-name="Group 20" transform="translate(0.082)">
          <g id="Group_19" data-name="Group 19">
            <path id="Path_45" data-name="Path 45" d="M439.311,113.514q-14.457,7.609-28.877,15.254-22.881,12.12-45.8,24.2c-3.478,1.848-6.993,3.7-10.471,5.544h3.659q-14.457-7.609-28.877-15.254-22.881-12.12-45.762-24.2c-3.478-1.848-6.993-3.7-10.471-5.544v6.268q14.457-7.609,28.877-15.254,22.881-12.065,45.761-24.167c3.478-1.848,6.993-3.7,10.471-5.544h-3.659q14.457,7.609,28.877,15.254,22.881,12.065,45.8,24.167c3.478,1.848,6.993,3.7,10.471,5.544,4.131,2.174,7.79-4.094,3.659-6.268Q428.4,105.8,413.8,98.116q-22.881-12.12-45.8-24.2c-3.333-1.775-6.667-3.659-10.073-5.326-1.957-.942-3.333-.29-4.928.58-1.739.906-3.478,1.812-5.181,2.754q-21.848,11.522-43.66,23.044c-11.486,6.087-23.189,11.884-34.529,18.225-.181.109-.362.181-.544.29a3.664,3.664,0,0,0,0,6.268q14.565,7.717,29.167,15.4,22.881,12.12,45.8,24.2c3.333,1.775,6.667,3.659,10.073,5.326,1.957.942,3.333.29,4.964-.58,1.739-.906,3.478-1.848,5.181-2.754q21.848-11.522,43.66-23.08c11.486-6.087,23.189-11.884,34.529-18.225.181-.109.362-.181.543-.29C447.065,117.609,443.405,111.34,439.311,113.514Z" transform="translate(-267.325 -68.124)" fill="#494f98"/>
          </g>
        </g>
        <g id="Group_22" data-name="Group 22" transform="translate(42.571 22.475)">
          <g id="Group_21" data-name="Group 21">
            <path id="Path_46" data-name="Path 46" d="M471.482,130.606q-14.4,7.609-28.841,15.254-22.881,12.12-45.761,24.2c-3.478,1.848-6.993,3.7-10.471,5.544-4.13,2.174-.471,8.442,3.659,6.268q14.4-7.609,28.841-15.254,22.881-12.12,45.761-24.2c3.478-1.848,6.993-3.7,10.471-5.544,4.13-2.174.471-8.442-3.66-6.268Z" transform="translate(-384.595 -130.154)" fill="#494f98"/>
          </g>
        </g>
      </g>
      <g id="Group_32" data-name="Group 32" transform="translate(0 134.784)">
        <g id="Group_25" data-name="Group 25" transform="translate(0 45.017)">
          <g id="Group_24" data-name="Group 24">
            <path id="Path_47" data-name="Path 47" d="M122.708,699.526q-14.4-7.609-28.841-15.218-22.881-12.065-45.761-24.167c-3.478-1.848-6.993-3.7-10.471-5.544.616,1.051,1.2,2.1,1.812,3.116V567.931c-1.812,1.051-3.623,2.1-5.435,3.116q14.4,7.609,28.841,15.254,22.881,12.12,45.761,24.2c3.478,1.848,6.993,3.7,10.471,5.544-.616-1.051-1.2-2.1-1.812-3.116v89.747c0,4.674,7.246,4.674,7.246,0V612.931a3.578,3.578,0,0,0-1.812-3.116q-14.4-7.609-28.841-15.254-22.881-12.12-45.761-24.2c-3.478-1.848-6.993-3.7-10.471-5.544a3.648,3.648,0,0,0-5.435,3.116v89.784a3.578,3.578,0,0,0,1.812,3.116q14.4,7.609,28.841,15.218,22.881,12.065,45.761,24.167c3.478,1.848,6.993,3.7,10.471,5.544C123.179,707.969,126.839,701.7,122.708,699.526Z" transform="translate(-32.2 -564.368)" fill="#494f98"/>
          </g>
        </g>
        <g id="Group_27" data-name="Group 27" transform="translate(85.074 44.98)">
          <g id="Group_26" data-name="Group 26">
            <path id="Path_48" data-name="Path 48" d="M353.958,654.535q-14.457,7.609-28.877,15.218-22.881,12.065-45.8,24.167c-3.478,1.848-6.993,3.7-10.471,5.544,1.812,1.051,3.623,2.1,5.435,3.116V612.831c-.616,1.051-1.2,2.1-1.812,3.116q14.457-7.609,28.877-15.254,22.881-12.12,45.8-24.2c3.478-1.848,6.993-3.7,10.471-5.544-1.812-1.051-3.623-2.1-5.435-3.116v89.82c0,4.674,7.246,4.674,7.246,0v-89.82a3.648,3.648,0,0,0-5.435-3.116q-14.457,7.609-28.877,15.254-22.881,12.12-45.8,24.2c-3.478,1.848-6.993,3.7-10.471,5.544A3.578,3.578,0,0,0,267,612.831v89.747a3.648,3.648,0,0,0,5.435,3.116q14.457-7.609,28.877-15.218,22.881-12.065,45.8-24.167c3.478-1.848,6.993-3.7,10.471-5.544C361.711,658.593,358.052,652.361,353.958,654.535Z" transform="translate(-267 -564.268)" fill="#494f98"/>
          </g>
        </g>
        <g id="Group_29" data-name="Group 29" transform="translate(0.045)">
          <g id="Group_28" data-name="Group 28">
            <path id="Path_49" data-name="Path 49" d="M204.311,485.551q-14.457,7.609-28.877,15.254-22.881,12.12-45.8,24.2c-3.478,1.848-6.993,3.7-10.471,5.544h3.659q-14.4-7.609-28.841-15.254-22.881-12.12-45.761-24.2c-3.478-1.848-6.993-3.7-10.471-5.544v6.268q14.457-7.609,28.877-15.254,22.881-12.12,45.761-24.2c3.478-1.848,6.993-3.7,10.471-5.544H119.2q14.457,7.609,28.877,15.254,22.881,12.065,45.761,24.167c3.478,1.848,6.993,3.7,10.471,5.544,4.13,2.174,7.79-4.058,3.659-6.268Q193.4,477.8,178.8,470.116q-22.881-12.12-45.8-24.2c-3.333-1.775-6.667-3.659-10.073-5.326-1.957-.942-3.333-.29-4.928.58-1.739.906-3.478,1.848-5.181,2.754Q90.976,455.442,69.164,467c-11.486,6.087-23.189,11.884-34.529,18.261-.181.109-.362.181-.543.29a3.664,3.664,0,0,0,0,6.268q14.565,7.717,29.167,15.4,22.881,12.12,45.8,24.2c3.333,1.775,6.667,3.659,10.073,5.326,1.957.942,3.333.29,4.964-.58,1.739-.906,3.478-1.848,5.181-2.754q21.848-11.522,43.66-23.08c11.486-6.087,23.189-11.884,34.529-18.261.181-.109.362-.181.543-.29C212.065,489.609,208.405,483.341,204.311,485.551Z" transform="translate(-32.325 -440.124)" fill="#494f98"/>
          </g>
        </g>
        <g id="Group_31" data-name="Group 31" transform="translate(42.535 22.534)">
          <g id="Group_30" data-name="Group 30">
            <path id="Path_50" data-name="Path 50" d="M236.482,502.782q-14.4,7.609-28.841,15.254-22.881,12.12-45.761,24.2c-3.478,1.848-6.993,3.7-10.471,5.544-4.13,2.174-.471,8.442,3.659,6.268q14.4-7.609,28.841-15.254,22.881-12.12,45.761-24.2c3.478-1.848,6.993-3.7,10.471-5.544,4.13-2.21.471-8.478-3.659-6.268Z" transform="translate(-149.595 -502.317)" fill="#494f98"/>
          </g>
        </g>
      </g>
      <g id="Group_41" data-name="Group 41" transform="translate(170.229 134.857)">
        <g id="Group_34" data-name="Group 34" transform="translate(0.027 44.908)">
          <g id="Group_33" data-name="Group 33">
            <path id="Path_51" data-name="Path 51" d="M592.681,699.463q-14.457-7.609-28.877-15.218-22.881-12.065-45.8-24.167c-3.478-1.848-6.993-3.7-10.471-5.544.616,1.051,1.2,2.1,1.812,3.116v-89.82c-1.812,1.051-3.623,2.1-5.435,3.116q14.457,7.609,28.877,15.254,22.881,12.12,45.8,24.2c3.478,1.848,6.993,3.7,10.471,5.544-.616-1.051-1.2-2.1-1.812-3.116v89.747c0,4.674,7.246,4.674,7.246,0V612.831a3.578,3.578,0,0,0-1.812-3.116q-14.457-7.609-28.877-15.254-22.881-12.12-45.8-24.2c-3.478-1.848-6.993-3.7-10.471-5.544a3.648,3.648,0,0,0-5.435,3.116v89.82a3.578,3.578,0,0,0,1.812,3.116q14.457,7.609,28.877,15.218,22.881,12.065,45.8,24.167c3.478,1.848,6.993,3.7,10.471,5.544C593.116,707.9,596.811,701.637,592.681,699.463Z" transform="translate(-502.1 -564.268)" fill="#494f98"/>
          </g>
        </g>
        <g id="Group_36" data-name="Group 36" transform="translate(85.137 44.908)">
          <g id="Group_35" data-name="Group 35">
            <path id="Path_52" data-name="Path 52" d="M823.885,654.535q-14.4,7.609-28.841,15.218-22.881,12.065-45.761,24.167c-3.478,1.848-6.993,3.7-10.471,5.544,1.812,1.051,3.623,2.1,5.435,3.116V612.831c-.616,1.051-1.2,2.1-1.812,3.116q14.4-7.609,28.841-15.254,22.881-12.12,45.761-24.2c3.478-1.848,6.993-3.7,10.471-5.544-1.812-1.051-3.623-2.1-5.435-3.116v89.784c0,4.674,7.246,4.674,7.246,0V567.831a3.648,3.648,0,0,0-5.435-3.116q-14.4,7.609-28.841,15.254-22.881,12.12-45.761,24.2c-3.478,1.848-6.993,3.7-10.471,5.544A3.578,3.578,0,0,0,737,612.831v89.747a3.648,3.648,0,0,0,5.435,3.116q14.4-7.609,28.841-15.218,22.881-12.065,45.761-24.167c3.478-1.848,6.993-3.7,10.471-5.544C831.675,658.593,828.016,652.361,823.885,654.535Z" transform="translate(-737 -564.269)" fill="#494f98"/>
          </g>
        </g>
        <g id="Group_38" data-name="Group 38">
          <g id="Group_37" data-name="Group 37">
            <path id="Path_53" data-name="Path 53" d="M674.047,485.714q-14.4,7.609-28.841,15.254-22.881,12.12-45.761,24.2c-3.478,1.848-6.993,3.7-10.471,5.544h3.659q-14.457-7.609-28.877-15.254-22.881-12.12-45.8-24.2c-3.478-1.848-6.993-3.7-10.471-5.544v6.268q14.457-7.609,28.877-15.254,22.881-12.065,45.8-24.167c3.478-1.848,6.993-3.7,10.471-5.544h-3.659q14.4,7.609,28.841,15.254,22.881,12.12,45.761,24.2c3.478,1.848,6.993,3.7,10.471,5.544,4.13,2.174,7.79-4.058,3.659-6.268q-14.565-7.718-29.167-15.435-22.881-12.12-45.8-24.2c-3.333-1.775-6.667-3.659-10.073-5.326-1.957-.942-3.333-.29-4.964.58-1.739.906-3.478,1.812-5.181,2.754q-21.848,11.522-43.66,23.044c-11.486,6.087-23.189,11.884-34.529,18.225-.181.109-.362.181-.544.29a3.664,3.664,0,0,0,0,6.268q14.565,7.717,29.167,15.435,22.881,12.12,45.8,24.2c3.333,1.775,6.667,3.659,10.073,5.326,1.956.942,3.333.29,4.928-.58,1.739-.906,3.478-1.848,5.181-2.754q21.794-11.522,43.624-23.08c11.486-6.087,23.189-11.884,34.493-18.225.181-.109.362-.181.544-.29C681.837,489.772,678.178,483.5,674.047,485.714Z" transform="translate(-502.025 -440.324)" fill="#494f98"/>
          </g>
        </g>
        <g id="Group_40" data-name="Group 40" transform="translate(42.598 22.461)">
          <g id="Group_39" data-name="Group 39">
            <path id="Path_54" data-name="Path 54" d="M706.482,502.782q-14.4,7.609-28.841,15.254-22.881,12.12-45.761,24.2c-3.478,1.848-6.993,3.7-10.471,5.544-4.13,2.174-.471,8.442,3.659,6.268q14.4-7.609,28.841-15.254,22.881-12.12,45.761-24.2c3.478-1.848,6.993-3.7,10.471-5.544,4.131-2.21.471-8.478-3.659-6.268Z" transform="translate(-619.595 -502.317)" fill="#494f98"/>
          </g>
        </g>
      </g>
    </g>
  </g>
</svg>
