<svg xmlns="http://www.w3.org/2000/svg" width="191.722" height="245.37" viewBox="0 0 191.722 245.37">
  <g id="Search_Match" data-name="Search &amp; Match" transform="translate(-20.001 -4.608)">
    <path id="Path_27" data-name="Path 27" d="M124.889,5.622a1.227,1.227,0,0,0-2.416,0,24.545,24.545,0,0,1-19.968,19.968,1.227,1.227,0,0,0,0,2.416,24.545,24.545,0,0,1,19.968,19.968,1.227,1.227,0,0,0,2.416,0,24.545,24.545,0,0,1,19.968-19.968,1.227,1.227,0,0,0,0-2.416A24.545,24.545,0,0,1,124.889,5.622Zm50.116,36.839a2.152,2.152,0,0,0-4.24,0A42.95,42.95,0,0,1,135.828,77.4a2.152,2.152,0,0,0,0,4.24,42.95,42.95,0,0,1,34.939,34.939,2.152,2.152,0,0,0,4.24,0,42.95,42.95,0,0,1,34.939-34.939,2.152,2.152,0,0,0,0-4.24A42.95,42.95,0,0,1,175.006,42.461Zm-72.413,35.3a72.051,72.051,0,1,0,72.051,72.051,5.272,5.272,0,0,1,10.544,0A82.237,82.237,0,0,1,164.6,204.366l36.609,36.617a5.266,5.266,0,1,1-7.447,7.447l-36.617-36.609A82.594,82.594,0,1,1,102.6,67.215a5.272,5.272,0,0,1,0,10.544Z" transform="translate(0 0)" fill="#494f98" fill-rule="evenodd"/>
  </g>
</svg>
