<svg xmlns="http://www.w3.org/2000/svg" width="296.018" height="231.638" viewBox="0 0 296.018 231.638">
  <g id="Select_Your_Logistics_Service" data-name="Select Your Logistics Service" transform="translate(-5.002 -14.781)">
    <path id="Path_29" data-name="Path 29" d="M74.928,203.7a19.743,19.743,0,1,0,5.82,14A19.756,19.756,0,0,0,74.928,203.7Zm180.144,0a19.743,19.743,0,1,0,5.82,14A19.756,19.756,0,0,0,255.072,203.7ZM78.836,23.724V74.179L95.281,64.71a4.372,4.372,0,0,1,4.51,0l16.446,9.469V23.724Zm46.343,0h55.915V156.933H13.978V23.724H69.893V81.938a4.5,4.5,0,0,0,6.745,3.88l20.917-12.1L118.24,85.651a4.473,4.473,0,0,0,6.976-3.713V23.724Zm92.983,62.493v55.428h73.222a28.049,28.049,0,0,0-2.505-6.848L269.144,96.022a17.4,17.4,0,0,0-15.983-9.867Zm73.877,64.368v62.493H269.477a28.782,28.782,0,0,0-56.84,0H89.362a28.774,28.774,0,0,0-56.827,0H13.983V165.744H185.569a4.5,4.5,0,0,0,4.51-4.471V86.215h19.105v59.9a4.477,4.477,0,0,0,4.484,4.471Zm8.981-4.87v72a4.474,4.474,0,0,1-4.471,4.471H269.478a28.782,28.782,0,0,1-56.84,0H89.362a28.774,28.774,0,0,1-56.827,0H9.512A4.474,4.474,0,0,1,5,217.717V19.252a4.474,4.474,0,0,1,4.471-4.471h176.1a4.5,4.5,0,0,1,4.51,4.471V77.275h62.993a26.278,26.278,0,0,1,23.936,14.66l19.735,38.815a36.407,36.407,0,0,1,4.278,14.968ZM225.37,165.848h9.867a4.475,4.475,0,1,0,0-8.917H225.37a4.471,4.471,0,0,0,0,8.942ZM32.1,145.586H65.615a4.507,4.507,0,0,0,0-8.981H32.1a4.508,4.508,0,0,0,0,8.981Zm0-20.686H65.615a4.478,4.478,0,0,0,0-8.955H32.1a4.478,4.478,0,0,0,0,8.955Z" transform="translate(0 0)" fill="#494f98" fill-rule="evenodd"/>
  </g>
</svg>
