<svg xmlns="http://www.w3.org/2000/svg" width="275.026" height="310.656" viewBox="0 0 275.026 310.656">
  <g id="Variety_of_Products" data-name="Variety of Products" transform="translate(-11.308 -6.426)">
    <path id="Path_42" data-name="Path 42" d="M282.358,135.3c-2.536-2.295-7.282-4.247-15.447-.518-1.8.821-2.667,2.306-4.108,4.772-.376.646-.73,1.284-.872,1.5a5,5,0,0,0-.956,1.565c-1.62,4.258-3.039,8.453-4.418,12.507-3.393,10.008-6.607,19.472-12.474,29.417-1.3,1.288-3.74,3.481-7.293,6.563.934-2.809,1.759-5.724,2.448-8.716a4.919,4.919,0,0,0,.128-.981c.394-13.233-6.582-19.15-12.671-20.194a14,14,0,0,0-15.571,9.635c-.828,1.857-1.649,3.783-2.5,5.768-4.754,11.157-10.135,23.788-22.153,36.882-18.713,12.069-22.292,31.263-21.219,61.7l-4.385-.033h-.036a5.014,5.014,0,0,0-5.009,4.973l-.241,31.358a5.011,5.011,0,0,0,4.973,5.049l69.261.54h.036a5.007,5.007,0,0,0,5.009-4.969l.244-31.358a5.014,5.014,0,0,0-4.973-5.049l-4.411-.033c-2.9-17.709,2.335-22.193,15.108-33.091a215.8,215.8,0,0,0,21.423-20.343c4.01-4.021,10.427-14.386,20.125-56.594C287.659,150,287.652,140.077,282.358,135.3Zm-57.47,171.719-59.243-.46.164-21.336,3.648.029a5.02,5.02,0,0,0,1.029.113c.084,0,.168,0,.255-.007a5.427,5.427,0,0,0,.6-.091l53.712.42Zm47.929-144.356c-.055.161-.1.325-.139.489-8.964,39.067-14.849,49.381-17.56,52.055-.066.069-.131.135-.2.208a207.348,207.348,0,0,1-20.588,19.541c-13.36,11.4-21.785,18.636-18.731,40.636l-40.3-.314c-1.164-32,3.065-44.868,17.082-53.657a5.133,5.133,0,0,0,1.007-.835c13.514-14.543,19.581-28.79,24.462-40.238.857-2.01,1.686-3.958,2.525-5.837q.109-.252.2-.514a4.088,4.088,0,0,1,4.429-3.1c2.725.467,4.418,4.188,4.36,9.537-2.93,12.3-8.369,23.306-14.262,28.808a5.011,5.011,0,0,0,6.629,7.512c17.231-14.356,27.031-22.81,29.953-25.842a5.047,5.047,0,0,0,.693-.9c6.615-11.051,10.2-21.628,13.674-31.854,1.273-3.758,2.59-7.64,4.046-11.514.4-.584.825-1.3,1.365-2.229.233-.4.46-.8.671-1.153,2.185-.854,3.3-.8,3.5-.711C275.671,142.759,278.356,146.338,272.818,162.661ZM213.538,291.613a5.012,5.012,0,0,1,6,3.769l.142.624a5.011,5.011,0,0,1-3.769,6,4.93,4.93,0,0,1-1.12.128,5.016,5.016,0,0,1-4.882-3.9l-.142-.624A5.009,5.009,0,0,1,213.538,291.613Zm-76.733-16.454h-.036l-4.382.033c1.073-30.439-2.514-49.633-21.219-61.7-12.018-13.094-17.4-25.725-22.153-36.882-.846-1.985-1.667-3.911-2.5-5.768A14.026,14.026,0,0,0,70.948,161.2c-6.089,1.043-13.065,6.961-12.671,20.194a4.92,4.92,0,0,0,.128.981c.69,2.988,1.514,5.9,2.448,8.705-4.061-3.521-6.21-5.484-7.293-6.56-5.87-9.946-9.081-19.409-12.474-29.413-1.375-4.053-2.8-8.249-4.418-12.507a4.068,4.068,0,0,0-.828-1.416c-.266-.365-.624-1-1-1.649-1.441-2.466-2.306-3.951-4.1-4.772-8.172-3.729-12.912-1.773-15.455.518-5.287,4.783-5.3,14.707-.029,30.34,9.7,42.2,16.115,52.573,20.125,56.594A215.778,215.778,0,0,0,56.8,242.564c12.773,10.9,18,15.382,15.108,33.091l-4.411.033a5.014,5.014,0,0,0-4.973,5.049l.244,31.358a5.009,5.009,0,0,0,5.009,4.969h.036l69.265-.54a5.014,5.014,0,0,0,4.973-5.049l-.244-31.358A5,5,0,0,0,136.805,275.159ZM63.312,234.95a207.348,207.348,0,0,1-20.588-19.541c-.062-.073-.131-.139-.2-.208-2.711-2.671-8.6-12.988-17.56-52.055a4.645,4.645,0,0,0-.139-.489c-5.542-16.323-2.853-19.9-2.86-19.9.237-.1,1.357-.168,3.546.686.212.35.441.755.671,1.153.54.927.963,1.645,1.364,2.229,1.456,3.871,2.773,7.753,4.046,11.514,3.47,10.23,7.06,20.8,13.674,31.854a4.809,4.809,0,0,0,.7.908c2.937,3.043,12.733,11.5,29.953,25.842a5.011,5.011,0,0,0,6.629-7.512c-5.889-5.5-11.332-16.505-14.262-28.811-.055-5.345,1.634-9.07,4.36-9.537a4.093,4.093,0,0,1,4.429,3.1,5.151,5.151,0,0,0,.2.514c.839,1.879,1.671,3.827,2.525,5.837,4.882,11.449,10.952,25.7,24.463,40.238a5.05,5.05,0,0,0,1.011.835c14.017,8.789,18.246,21.657,17.082,53.657l-40.308.314C85.1,253.586,76.669,246.351,63.312,234.95Zm9.446,72.067-.168-21.336,53.715-.42a5.441,5.441,0,0,0,.6.091c.088,0,.171.007.255.007a4.806,4.806,0,0,0,1.029-.113l3.645-.029L132,306.554Zm15.123-9.4-.142.624a5.019,5.019,0,0,1-4.882,3.9,4.907,4.907,0,0,1-1.12-.128,5.009,5.009,0,0,1-3.769-6l.142-.624a5.011,5.011,0,1,1,9.77,2.233Zm63.267-119.923c.058-.029.12-.04.179-.073l70.082-40.461a5.01,5.01,0,0,0,2.506-4.338V51.9c0-.069-.022-.131-.026-.2a4.734,4.734,0,0,0-.12-.9c-.022-.1-.04-.208-.069-.306a4.565,4.565,0,0,0-1.178-2.039c-.073-.077-.153-.142-.23-.212a5.173,5.173,0,0,0-.733-.566c-.055-.033-.095-.084-.15-.113L151.326,7.1a5.014,5.014,0,0,0-5.009,0L76.238,47.557c-.055.029-.091.077-.142.109a5.145,5.145,0,0,0-.748.573c-.073.069-.15.131-.219.2a5.037,5.037,0,0,0-.726.945,4.927,4.927,0,0,0-.456,1.1c-.029.1-.047.2-.069.306a4.734,4.734,0,0,0-.12.9c0,.069-.026.131-.026.2v80.921a5.006,5.006,0,0,0,2.506,4.338l70.078,40.461c.058.033.12.044.179.073a4.959,4.959,0,0,0,.85.35,2.834,2.834,0,0,0,.3.091,4.608,4.608,0,0,0,2.357,0c.1-.026.2-.062.3-.091A4.636,4.636,0,0,0,151.147,177.692ZM103.01,43.672l60.6,34.361-14.791,8.541L88.763,51.9Zm19.326-11.157L182.983,66.85l-9.3,5.37-60.6-34.361Zm63.387,65.664-9.285,5.36-.234-21.2,9.354-5.4ZM153.832,164.6V95.249l12.412-7.165.266,24.134a5.011,5.011,0,0,0,7.516,4.283l19.234-11.1a5.021,5.021,0,0,0,2.506-4.378l-.234-29.844,18.359-10.6v69.349ZM148.823,17.221,208.883,51.9l-15.827,9.136L132.409,26.7ZM83.754,60.575,143.81,95.249V164.6L83.754,129.924V60.575Z" transform="translate(0 0)" fill="#494f98"/>
  </g>
</svg>
