<svg width="96" height="98" viewBox="0 0 96 98" fill="none" xmlns="http://www.w3.org/2000/svg">
<path d="M16.133 28.789L8.34 33.7695C7.64859 34.2148 7.047 34.7304 6.5431 35.3086L16.1329 43.1914L16.133 28.789ZM48 34.9374C49.1602 34.9374 50.2109 34.4647 50.9688 33.7069C51.7266 32.9491 52.1993 31.8983 52.1993 30.7381C52.1993 29.5779 51.7266 28.5272 50.9688 27.7693C50.211 27.0076 49.1602 26.5388 48 26.5388C46.8398 26.5388 45.7891 27.0076 45.0312 27.7693C44.2734 28.5271 43.8007 29.5779 43.8007 30.7381C43.8007 31.8983 44.2734 32.949 45.0312 33.7069C45.789 34.4647 46.8398 34.9374 48 34.9374ZM54.2148 36.953C52.621 38.5468 50.4257 39.5311 48 39.5311C45.5743 39.5311 43.375 38.5467 41.7852 36.953C40.1954 35.3632 39.211 33.1639 39.211 30.7382C39.211 28.3125 40.1954 26.1132 41.7852 24.5234C43.375 22.9336 45.5743 21.9492 48 21.9492C49.8086 21.9492 51.4883 22.4961 52.8867 23.4297C53.3008 23.0235 53.8711 22.7735 54.4961 22.7735C55.7656 22.7735 56.793 23.8008 56.793 25.0704V30.7423C56.793 31.504 57.1094 32.1993 57.6133 32.7071L57.6055 32.7149C58.1133 33.2149 58.8086 33.5274 59.5743 33.5274C60.336 33.5274 61.0313 33.2149 61.5391 32.7071C62.0469 32.1992 62.3594 31.5079 62.3594 30.7423C62.3594 26.7775 60.75 23.1837 58.1524 20.5863C55.5547 17.9886 51.9649 16.3793 47.9964 16.3793C44.0316 16.3793 40.4378 17.9887 37.8404 20.5863C35.2427 23.184 33.6334 26.7738 33.6334 30.7423C33.6334 34.7071 35.2428 38.3009 37.8404 40.8983C40.4381 43.496 44.0279 45.1053 47.9964 45.1053C51.9612 45.1053 55.555 43.4998 58.1524 40.8983C58.9962 40.0545 59.7305 39.1092 60.3438 38.0819C60.0899 38.1092 59.8321 38.1209 59.5743 38.1209C57.7501 38.1209 56.0743 37.449 54.7813 36.3397C54.6016 36.5546 54.4141 36.7655 54.2149 36.9647L54.2148 36.953ZM61.3984 44.1366C57.9687 47.5663 53.2304 49.6874 47.9964 49.6874C42.7659 49.6874 38.0237 47.5663 34.5944 44.1366C31.1647 40.7069 29.0397 35.9686 29.0397 30.7346C29.0397 25.5041 31.1608 20.7619 34.5944 17.3326C38.0241 13.9029 42.7624 11.7818 47.9964 11.7818C53.2269 11.7818 57.9691 13.9029 61.3984 17.3326C64.8281 20.7623 66.9531 25.5006 66.9531 30.7346C66.9531 35.9651 64.832 40.7073 61.3984 44.1366ZM20.7224 46.9647L39.3944 62.3167L40.0507 61.7776C42.3866 59.8557 45.1912 58.8987 47.9959 58.8987C50.8006 58.8987 53.6092 59.8597 55.9412 61.7776L56.5975 62.3167L75.2695 46.9647V11.9807C75.2695 9.9455 74.4375 8.1018 73.1015 6.7619C71.7617 5.4221 69.9179 4.5939 67.8827 4.5939H28.1057C26.0745 4.5939 24.2268 5.42593 22.8869 6.7619C21.5471 8.1017 20.7189 9.9455 20.7189 11.9807V46.9647H20.7224ZM79.8674 43.1874L89.4572 35.3046C88.9533 34.7265 88.3517 34.2108 87.6603 33.7655L79.8673 28.785L79.8674 43.1874ZM79.8674 23.3554L90.1174 29.9062C91.9612 31.0859 93.4104 32.6289 94.3947 34.4257C94.4416 34.5116 94.4845 34.5976 94.5314 34.6796L94.5353 34.6874L94.5627 34.7382C95.4455 36.4648 95.9104 38.3984 95.9104 40.453V85.469C95.9104 88.9182 94.5042 92.051 92.2346 94.3206C89.9651 96.5901 86.8362 97.9964 83.383 97.9964H12.617C9.16777 97.9964 6.03497 96.5902 3.76537 94.3206C1.49587 92.0511 0.0895691 88.9222 0.0895691 85.469V40.453C0.0895691 38.4022 0.554409 36.4647 1.43727 34.7382L1.46461 34.6874L1.46852 34.6796C1.51539 34.5937 1.55836 34.5077 1.60524 34.4257C2.59352 32.6249 4.03494 31.0819 5.88254 29.9062L16.1325 23.3554V11.9804C16.1325 8.6796 17.4763 5.6874 19.6481 3.5156C21.8161 1.3476 24.8161 0 28.1129 0H67.8899C71.1907 0 74.1829 1.3438 76.3547 3.5156C78.5227 5.6836 79.8703 8.6797 79.8703 11.9804V23.3554H79.8674ZM17.1294 49.9294C17.02 49.8552 16.9185 49.7692 16.8247 49.6794L4.71571 39.7224C4.69618 39.9607 4.68446 40.2068 4.68446 40.4529V85.4689C4.68446 87.0587 5.15712 88.5431 5.96966 89.7892L35.7897 65.2772L17.1257 49.9332L17.1294 49.9294ZM79.1724 49.6794C79.0787 49.7732 78.9771 49.8552 78.8677 49.9294L60.2037 65.2734L90.0237 89.7854C90.8362 88.5393 91.3089 87.0588 91.3089 85.4651V40.4491C91.3089 40.203 91.2972 39.9608 91.2777 39.7186L79.1687 49.6756L79.1724 49.6794ZM40.8794 67.0154L40.813 67.0701L9.54299 92.7771C10.4883 93.1755 11.5274 93.3982 12.6133 93.3982H83.3793C84.4691 93.3982 85.5082 93.1755 86.4496 92.7771L55.1796 67.0701L55.1132 67.0154L53.039 65.3084C51.5585 64.0936 49.7812 63.4881 47.996 63.4881C46.2148 63.4881 44.4335 64.0975 42.953 65.3084L40.8794 67.0154Z" fill="#282F86"/>
</svg>
