<svg width="146" height="146" viewBox="0 0 146 146" fill="none" xmlns="http://www.w3.org/2000/svg">
<path d="M143.894 59.474L143.223 55.786L139.607 54.799C131.953 52.7072 123.909 52.4805 116.149 54.138C114.367 49.9283 111.982 46.0007 109.067 42.479C117.036 40.352 126.454 39.493 137.567 40.435C131.579 28.2982 122.314 18.0791 110.82 10.9336C99.3269 3.78803 86.0632 0.00109863 72.5295 0.00109863C58.9958 0.00109863 45.7321 3.78803 34.2386 10.9336C22.745 18.0791 13.4802 28.2982 7.49201 40.435C18.61 39.493 28.028 40.352 35.997 42.479C33.0843 46.0003 30.7002 49.9272 28.92 54.136C21.1603 52.48 13.1167 52.7077 5.46301 54.8L1.84601 55.787L1.17501 59.475C-0.640136 69.3894 -0.369238 79.5733 1.97043 89.3772C4.3101 99.1811 8.66719 108.39 14.7638 116.416C20.8605 124.442 28.5629 131.11 37.3798 135.994C46.1967 140.878 55.9347 143.871 65.9726 144.782C76.0106 145.693 86.1283 144.502 95.6804 141.285C105.232 138.068 114.009 132.896 121.451 126.098C128.893 119.301 134.837 111.027 138.903 101.804C142.97 92.582 145.07 82.6132 145.069 72.534C145.069 68.1539 144.676 63.7837 143.894 59.474ZM107.957 72.534C107.937 79.0205 106.146 85.3784 102.777 90.9215C99.4085 96.4646 94.5896 100.982 88.841 103.987C88.6056 97.1118 90.2528 90.3029 93.6046 84.2955C96.9565 78.2881 101.886 73.3105 107.86 69.9C107.927 70.7747 107.96 71.653 107.96 72.535M72.534 11.9C87.6962 11.8372 102.321 17.5103 113.475 27.781C108.007 28.7282 102.66 30.2707 97.528 32.381C90.0355 27.6902 81.3742 25.2026 72.5345 25.2026C63.6948 25.2026 55.0335 27.6902 47.541 32.381C42.4087 30.2707 37.0609 28.7281 31.593 27.781C42.7468 17.5103 57.3719 11.8373 72.534 11.9ZM84.7 39.286C80.1212 42.396 76.0222 46.1592 72.533 50.456C69.0437 46.1593 64.9446 42.3962 60.366 39.286C68.2184 36.3877 76.8476 36.3877 84.7 39.286ZM37.208 69.9C41.5161 72.3558 45.2976 75.6371 48.336 79.5561C51.3744 83.4752 53.61 87.9549 54.915 92.739C55.9132 96.4015 56.3558 100.193 56.228 103.987C50.4793 100.982 45.6604 96.4646 42.2914 90.9215C38.9224 85.3785 37.1311 79.0206 37.111 72.534C37.111 71.6527 37.1443 70.774 37.211 69.898M72.537 133.165C56.4612 133.148 41.0486 126.755 29.6807 115.389C18.3129 104.022 11.9183 88.6098 11.9 72.534C11.8999 70.1711 12.0361 67.8102 12.308 65.463C16.7485 64.7142 21.2874 64.7701 25.708 65.628C25.3742 67.9148 25.2071 70.2229 25.208 72.534C25.1752 82.925 28.5942 93.0326 34.928 101.27C41.1176 109.336 49.7244 115.212 59.491 118.038L65.538 119.768L66.932 113.634C69.3996 102.71 68.1023 91.2724 63.2507 81.1785C58.399 71.0846 50.278 62.927 40.206 58.03C42.0587 53.9202 44.6809 50.203 47.931 47.079C60.593 53.7 68.171 64.1 72.534 74.236C76.9 64.1 84.476 53.7 97.137 47.079C100.387 50.2032 103.01 53.9203 104.863 58.03C94.7915 62.9264 86.6707 71.0833 81.819 81.1765C76.9674 91.2697 75.6699 102.706 78.137 113.63L79.531 119.764L85.577 118.034C95.3438 115.208 103.951 109.332 110.14 101.266C116.474 93.0286 119.893 82.921 119.86 72.53C119.861 70.2189 119.694 67.9109 119.36 65.624C123.781 64.7657 128.32 64.7098 132.76 65.459C133.032 67.8062 133.168 70.1671 133.168 72.53C133.15 88.6047 126.756 104.016 115.389 115.382C104.023 126.749 88.6118 133.143 72.537 133.161" fill="#51579D"/>
<mask id="mask0_51_113" style="mask-type:luminance" maskUnits="userSpaceOnUse" x="47" y="25" width="29" height="15">
<path d="M47.541 32.386C52.0761 34.1682 56.3827 36.4842 60.37 39.285C64.2658 37.8486 68.3849 37.1126 72.537 37.111C73.408 37.111 74.27 37.151 75.129 37.211C74.71 34.13 70.929 29.325 65.382 25.758C59.0491 26.7364 52.9806 28.9899 47.544 32.382" fill="white"/>
</mask>
<g mask="url(#mask0_51_113)">
<path d="M59.3118 12.1185L40.852 33.515L63.3546 52.9291L81.8144 31.5327L59.3118 12.1185Z" fill="#51579D"/>
</g>
<mask id="mask1_51_113" style="mask-type:luminance" maskUnits="userSpaceOnUse" x="97" y="27" width="28" height="16">
<path d="M97.528 32.387C101.112 34.638 106.607 39.84 109.067 42.477C113.954 41.1987 118.96 40.4299 124.005 40.183C122.056 36.826 118.177 32.316 113.475 27.783C108.007 28.73 102.66 30.2725 97.528 32.383" fill="white"/>
</mask>
<g mask="url(#mask1_51_113)">
<path d="M114.062 14.963L90.413 33.303L107.472 55.2995L131.12 36.9595L114.062 14.963Z" fill="#51579D"/>
</g>
<mask id="mask2_51_113" style="mask-type:luminance" maskUnits="userSpaceOnUse" x="104" y="65" width="16" height="23">
<path d="M107.86 69.899C107.927 70.7737 107.96 71.6521 107.96 72.5341C107.956 77.5875 106.865 82.5808 104.76 87.175C108.587 84.313 114.081 82.2451 119.093 81.0551C120.017 75.9611 120.107 70.7508 119.359 65.6281C115.299 66.3445 111.403 67.7912 107.859 69.898" fill="white"/>
</mask>
<g mask="url(#mask2_51_113)">
<path d="M117.935 60.6057L97.5911 68.36L106.673 92.1873L127.017 84.4329L117.935 60.6057Z" fill="#51579D"/>
</g>
<mask id="mask3_51_113" style="mask-type:luminance" maskUnits="userSpaceOnUse" x="37" y="58" width="16" height="24">
<path d="M37.206 69.899C42.1274 72.7059 46.3533 76.5853 49.57 81.249C49.5053 76.2264 50.5802 71.2544 52.714 66.707C49.0153 63.1882 44.7957 60.2614 40.204 58.03C38.404 61.823 37.778 64.863 37.204 69.899" fill="white"/>
</mask>
<g mask="url(#mask3_51_113)">
<path d="M37.4627 56.0562L34.261 80.869L52.4662 83.2181L55.6679 58.4052L37.4627 56.0562Z" fill="#51579D"/>
</g>
<mask id="mask4_51_113" style="mask-type:luminance" maskUnits="userSpaceOnUse" x="37" y="69" width="1" height="2">
<path d="M37.193 70.184C37.199 70.089 37.202 69.994 37.208 69.899C37.198 69.99 37.194 70.086 37.193 70.184Z" fill="white"/>
</mask>
<g mask="url(#mask4_51_113)">
<path d="M37.1933 69.8974L37.157 70.179L37.2086 70.1857L37.2449 69.904L37.1933 69.8974Z" fill="#51579D"/>
</g>
</svg>
