<svg width="22" height="30" viewBox="0 0 22 30" fill="none" xmlns="http://www.w3.org/2000/svg">
<path d="M18.461 22.789C18.021 22.553 17.477 22.717 17.241 23.153C17.005 23.591 17.168 24.136 17.605 24.373C18.334 24.766 18.768 25.216 18.768 25.576C18.768 26.581 15.669 28.1 10.999 28.1C6.32899 28.1 3.22999 26.58 3.22999 25.576C3.22999 25.216 3.66499 24.766 4.39299 24.373C4.82999 24.137 4.99399 23.591 4.75699 23.153C4.52099 22.716 3.97699 22.553 3.53699 22.789C1.79499 23.729 1.42999 24.824 1.42999 25.576C1.42999 28.415 6.24299 29.9 10.998 29.9C15.753 29.9 20.566 28.415 20.566 25.576C20.568 24.824 20.203 23.729 18.461 22.789Z" fill="#282F86"/>
<path d="M7.686 24.186C8.631 25.027 9.815 25.447 11 25.447C12.185 25.447 13.37 25.027 14.314 24.186C17.793 21.089 21.939 16.317 21.939 11.171C21.94 5.06601 17.032 0.100006 11 0.100006C4.968 0.100006 0.0599976 5.06601 0.0599976 11.171C0.0599976 16.317 4.207 21.089 7.686 24.186ZM11 1.90001C16.04 1.90001 20.14 6.05901 20.14 11.171C20.14 15.886 15.74 20.506 13.117 22.841C11.91 23.916 10.09 23.916 8.883 22.841C6.26 20.507 1.86 15.886 1.86 11.171C1.86 6.05901 5.96 1.90001 11 1.90001Z" fill="#282F86"/>
<path d="M11 15.406C13.411 15.406 15.372 13.445 15.372 11.034C15.372 8.62299 13.411 6.66299 11 6.66299C8.58899 6.66299 6.62799 8.62399 6.62799 11.035C6.62799 13.446 8.58899 15.406 11 15.406ZM11 8.46199C12.418 8.46199 13.572 9.61599 13.572 11.034C13.572 12.452 12.418 13.606 11 13.606C9.58199 13.606 8.42799 12.452 8.42799 11.034C8.42799 9.61599 9.58199 8.46199 11 8.46199Z" fill="#282F86"/>
</svg>
