<svg xmlns="http://www.w3.org/2000/svg" xmlns:xlink="http://www.w3.org/1999/xlink" width="1088.598" height="145.069" viewBox="0 0 1088.598 145.069">
  <defs>
    <clipPath id="clip-path">
      <path id="Path_2" data-name="Path 2" d="M244.171,138.941A61.368,61.368,0,0,1,257,145.84a35.209,35.209,0,0,1,12.167-2.174c.871,0,1.733.04,2.592.1-.419-3.081-4.2-7.886-9.747-11.453a47.359,47.359,0,0,0-17.838,6.624" transform="translate(-244.171 -132.317)" fill="#fff"/>
    </clipPath>
    <clipPath id="clip-path-2">
      <path id="Path_3" data-name="Path 3" d="M500.907,147.305c3.584,2.251,9.079,7.453,11.539,10.09a73.151,73.151,0,0,1,14.938-2.294c-1.949-3.357-5.828-7.867-10.53-12.4a76.056,76.056,0,0,0-15.947,4.6" transform="translate(-500.907 -142.703)" fill="#fff"/>
    </clipPath>
    <clipPath id="clip-path-3">
      <path id="Path_4" data-name="Path 4" d="M541.148,341.341q.1,1.312.1,2.635a35.218,35.218,0,0,1-3.2,14.641c3.827-2.862,9.321-4.93,14.333-6.12a47.766,47.766,0,0,0,.266-15.427,34.1,34.1,0,0,0-11.5,4.27" transform="translate(-538.047 -337.071)" fill="#fff"/>
    </clipPath>
    <clipPath id="clip-path-4">
      <path id="Path_6" data-name="Path 6" d="M191.1,309.913a37.725,37.725,0,0,1,12.364,11.35,33.225,33.225,0,0,1,3.144-14.542,49.609,49.609,0,0,0-12.51-8.677c-1.8,3.793-2.426,6.833-3,11.869" transform="translate(-191.102 -298.044)" fill="#fff"/>
    </clipPath>
    <clipPath id="clip-path-5">
      <path id="Path_5" data-name="Path 5" d="M191.023,359.287c.006-.095.009-.19.015-.285-.01.091-.014.187-.015.285" transform="translate(-191.023 -359.002)" fill="#fff"/>
    </clipPath>
  </defs>
  <g id="medhub_global_logo" data-name="medhub global logo" transform="translate(-436.985 -470.974)">
    <g id="Group_13" data-name="Group 13" transform="translate(436.985 470.974)">
      <path id="Path_1" data-name="Path 1" d="M143.894,59.474l-.671-3.688-3.616-.987a49.645,49.645,0,0,0-23.458-.661,47.052,47.052,0,0,0-7.082-11.659c7.969-2.127,17.387-2.986,28.5-2.044a72.523,72.523,0,0,0-130.075,0c11.118-.942,20.536-.083,28.505,2.044A47.035,47.035,0,0,0,28.92,54.136,49.653,49.653,0,0,0,5.463,54.8l-3.617.987-.671,3.688A72.54,72.54,0,1,0,145.069,72.534a73.1,73.1,0,0,0-1.175-13.061M107.957,72.534a35.613,35.613,0,0,1-19.116,31.453A37.762,37.762,0,0,1,107.86,69.9q.1,1.312.1,2.635M72.534,11.9a60.072,60.072,0,0,1,40.941,15.881,76.075,76.075,0,0,0-15.947,4.6,47.1,47.1,0,0,0-49.987,0,76.08,76.08,0,0,0-15.948-4.6A60.073,60.073,0,0,1,72.534,11.9M84.7,39.286a56.742,56.742,0,0,0-12.167,11.17,56.758,56.758,0,0,0-12.167-11.17,35.138,35.138,0,0,1,24.334,0M37.208,69.9A37.713,37.713,0,0,1,54.915,92.739a37.919,37.919,0,0,1,1.313,11.248A35.615,35.615,0,0,1,37.111,72.534q0-1.322.1-2.636m35.326,63.267A60.7,60.7,0,0,1,11.9,72.534a61.421,61.421,0,0,1,.408-7.071,37.557,37.557,0,0,1,13.4.165,47.67,47.67,0,0,0-.5,6.906,46.9,46.9,0,0,0,9.72,28.736,47.662,47.662,0,0,0,24.563,16.768l6.047,1.73,1.394-6.134A49.661,49.661,0,0,0,40.206,58.03a35.326,35.326,0,0,1,7.725-10.951C60.593,53.7,68.171,64.1,72.534,74.236,76.9,64.1,84.476,53.7,97.137,47.079a35.343,35.343,0,0,1,7.726,10.951,49.658,49.658,0,0,0-26.726,55.6l1.394,6.134,6.046-1.73a47.656,47.656,0,0,0,24.563-16.768,46.9,46.9,0,0,0,9.72-28.736,47.694,47.694,0,0,0-.5-6.906,37.539,37.539,0,0,1,13.4-.165,61.594,61.594,0,0,1,.408,7.071,60.7,60.7,0,0,1-60.631,60.631" transform="translate(0 0)" fill="#fff"/>
      <g id="Group_4" data-name="Group 4" transform="translate(47.541 25.762)">
        <g id="Group_3" data-name="Group 3" transform="translate(0 0)" clip-path="url(#clip-path)">
          <rect id="Rectangle_2" data-name="Rectangle 2" width="28.259" height="29.72" transform="translate(-6.689 7.753) rotate(-49.214)" fill="#fff"/>
        </g>
      </g>
      <g id="Group_6" data-name="Group 6" transform="translate(97.528 27.785)">
        <g id="Group_5" data-name="Group 5" transform="translate(0)" clip-path="url(#clip-path-2)">
          <rect id="Rectangle_3" data-name="Rectangle 3" width="29.927" height="27.836" transform="translate(-7.115 5.518) rotate(-37.794)" fill="#fff"/>
        </g>
      </g>
      <g id="Group_8" data-name="Group 8" transform="translate(104.759 65.629)">
        <g id="Group_7" data-name="Group 7" transform="translate(0 0)" clip-path="url(#clip-path-3)">
          <rect id="Rectangle_4" data-name="Rectangle 4" width="21.782" height="25.511" transform="matrix(0.934, -0.356, 0.356, 0.934, -7.168, 2.731)" fill="#fff"/>
        </g>
      </g>
      <g id="Group_12" data-name="Group 12" transform="translate(37.208 58.03)">
        <g id="Group_11" data-name="Group 11" transform="translate(0)" clip-path="url(#clip-path-4)">
          <rect id="Rectangle_6" data-name="Rectangle 6" width="25.013" height="18.352" transform="matrix(0.128, -0.992, 0.992, 0.128, -2.947, 22.839)" fill="#fff"/>
        </g>
      </g>
      <g id="Group_10" data-name="Group 10" transform="translate(37.193 69.899)">
        <g id="Group_9" data-name="Group 9" transform="translate(0)" clip-path="url(#clip-path-5)">
          <rect id="Rectangle_5" data-name="Rectangle 5" width="0.284" height="0.052" transform="matrix(0.128, -0.992, 0.992, 0.128, -0.036, 0.28)" fill="#fff"/>
        </g>
      </g>
    </g>
    <path id="Path_55" data-name="Path 55" d="M55.192-47.632a18.171,18.171,0,0,0-6.469-7.288A18.5,18.5,0,0,0,38.4-57.673a19.678,19.678,0,0,0-5.828.81,17.774,17.774,0,0,0-4.705,2.214,20.992,20.992,0,0,0-3.689,3.131,37.4,37.4,0,0,0-2.994,3.671V-56.5H8.132V0H21.186V-31.705q0-6.617,3.3-10.354A11.087,11.087,0,0,1,33.222-45.8q5.432,0,8.415,3.523t2.983,10.142V0H57.673V-31.812q0-6.831,3.355-10.407a11.364,11.364,0,0,1,8.68-3.576q5.432,0,8.415,3.523t2.983,10.249V0H94.16V-36.059q0-10.379-5.246-16t-14.56-5.618a21.381,21.381,0,0,0-11.08,2.754A27.847,27.847,0,0,0,55.192-47.632Zm70.854,23.985h41.516q.107-.963.16-1.819t.053-1.712a39.435,39.435,0,0,0-1.712-11.663,28.787,28.787,0,0,0-5.083-9.737,24.314,24.314,0,0,0-8.453-6.634,26.832,26.832,0,0,0-11.824-2.461,25.924,25.924,0,0,0-11.128,2.354,27.655,27.655,0,0,0-8.72,6.367,28.761,28.761,0,0,0-5.725,9.362A31.959,31.959,0,0,0,113.1-28.141,31.067,31.067,0,0,0,115.346-16.1,27.842,27.842,0,0,0,121.5-6.848a27.755,27.755,0,0,0,9.2,5.992,30.13,30.13,0,0,0,11.4,2.14,29.034,29.034,0,0,0,13.428-2.889,31.266,31.266,0,0,0,9.684-7.7l-7.6-6.741a27.121,27.121,0,0,1-6.955,5.029,18.945,18.945,0,0,1-8.346,1.712A16.06,16.06,0,0,1,131.61-13Q127.223-16.692,126.046-23.647Zm-.107-8.56A18.608,18.608,0,0,1,130.7-42.961a13.052,13.052,0,0,1,9.9-4.119,13.351,13.351,0,0,1,5.725,1.177,13.713,13.713,0,0,1,4.333,3.157,14.931,14.931,0,0,1,2.889,4.708,22.134,22.134,0,0,1,1.391,5.831ZM242.783,0V-78.11H229.729v30.388a31.5,31.5,0,0,0-7.686-6.955,20.682,20.682,0,0,0-11.528-3,25.767,25.767,0,0,0-9.767,1.926,23.913,23.913,0,0,0-8.379,5.724,28.658,28.658,0,0,0-5.818,9.256,33.434,33.434,0,0,0-2.188,12.519A32.725,32.725,0,0,0,186.6-15.729a29.4,29.4,0,0,0,5.871,9.255A24.028,24.028,0,0,0,200.8-.749a25.373,25.373,0,0,0,9.714,1.926,20.2,20.2,0,0,0,11.475-3.1,29.267,29.267,0,0,0,7.74-7.49V0Zm-12.84-28.248a19.936,19.936,0,0,1-1.333,7.49,18.358,18.358,0,0,1-3.573,5.725,15.347,15.347,0,0,1-5.225,3.691,15.506,15.506,0,0,1-6.186,1.284,15.387,15.387,0,0,1-6.239-1.284,15.85,15.85,0,0,1-5.173-3.638,16.882,16.882,0,0,1-3.519-5.725,21.112,21.112,0,0,1-1.28-7.543,21.436,21.436,0,0,1,1.28-7.65,16.882,16.882,0,0,1,3.519-5.725,15.182,15.182,0,0,1,5.173-3.584,15.963,15.963,0,0,1,6.239-1.231,15.506,15.506,0,0,1,6.186,1.284,15.347,15.347,0,0,1,5.225,3.692,18.358,18.358,0,0,1,3.573,5.724A19.936,19.936,0,0,1,229.943-28.248Zm48.471-3.564q0-6.617,3.5-10.3a12.013,12.013,0,0,1,9.122-3.683q5.73,0,8.858,3.576t3.129,10.2V0h13.054V-35.952q0-9.951-5.228-15.836t-14.831-5.885a19.985,19.985,0,0,0-5.921.81,19.568,19.568,0,0,0-4.8,2.214,19.777,19.777,0,0,0-3.841,3.185,31.874,31.874,0,0,0-3.041,3.833V-78.11H265.36V0h13.054Zm96.728,7.129q0,6.617-3.5,10.3a12.013,12.013,0,0,1-9.122,3.683q-5.73,0-8.858-3.576t-3.129-10.2V-56.5H337.478v35.952q0,9.951,5.228,15.836t14.831,5.885a17.937,17.937,0,0,0,10.67-2.969,27.711,27.711,0,0,0,6.935-7.072V0H388.2V-56.5H375.142Zm94.16-3.564a32.725,32.725,0,0,0-2.242-12.519,28.9,28.9,0,0,0-5.924-9.256,24.567,24.567,0,0,0-8.379-5.724,25.373,25.373,0,0,0-9.714-1.926,20.2,20.2,0,0,0-11.421,3.05,28.177,28.177,0,0,0-7.686,7.543V-78.11H410.88V0h13.054l-.107-8.774a29.771,29.771,0,0,0,7.6,6.955,20.769,20.769,0,0,0,11.556,3,25.884,25.884,0,0,0,9.79-1.926,24.5,24.5,0,0,0,8.453-5.725,28.174,28.174,0,0,0,5.885-9.255A33.367,33.367,0,0,0,469.3-28.248Zm-13.054,0a21.051,21.051,0,0,1-1.284,7.543,17.336,17.336,0,0,1-3.478,5.725,15.328,15.328,0,0,1-5.136,3.638,15.48,15.48,0,0,1-6.26,1.284,15.859,15.859,0,0,1-6.313-1.284,15.4,15.4,0,0,1-5.243-3.691,18.345,18.345,0,0,1-3.584-5.725,19.88,19.88,0,0,1-1.338-7.49,19.88,19.88,0,0,1,1.338-7.49,18.345,18.345,0,0,1,3.584-5.724,15.4,15.4,0,0,1,5.243-3.692,15.859,15.859,0,0,1,6.313-1.284,15.48,15.48,0,0,1,6.26,1.284,15.328,15.328,0,0,1,5.136,3.638,17.336,17.336,0,0,1,3.478,5.725A21.051,21.051,0,0,1,456.248-28.248Zm126.8,16.692V-56.5H570.1v8.547a32.139,32.139,0,0,0-7.971-6.861q-4.655-2.863-11.824-2.863a26.092,26.092,0,0,0-9.576,1.819,24.968,24.968,0,0,0-8.239,5.243,25.367,25.367,0,0,0-5.724,8.346,27.93,27.93,0,0,0-2.14,11.235,27.93,27.93,0,0,0,2.14,11.235,25.367,25.367,0,0,0,5.724,8.346,24.391,24.391,0,0,0,8.186,5.19,26.65,26.65,0,0,0,9.63,1.766,21.755,21.755,0,0,0,11.663-2.917,30.476,30.476,0,0,0,8.239-7.564v4.407q0,8.6-4.6,13.008T552.334,6.848a34.333,34.333,0,0,1-10.7-1.605A43.4,43.4,0,0,1,532.218.856L527.4,10.593a47.769,47.769,0,0,0,25.252,6.741q14.552,0,22.47-6.955T583.043-11.556ZM570.31-31.03a14.555,14.555,0,0,1-1.338,6.322,15.8,15.8,0,0,1-3.584,4.889,15.646,15.646,0,0,1-5.3,3.188,18.38,18.38,0,0,1-6.367,1.116,17.5,17.5,0,0,1-6.259-1.116,14.707,14.707,0,0,1-5.083-3.188,15.755,15.755,0,0,1-3.424-4.941,15.437,15.437,0,0,1-1.284-6.377,16.017,16.017,0,0,1,1.231-6.376A14.1,14.1,0,0,1,542.33-42.4a15.87,15.87,0,0,1,5.083-3.135,17.376,17.376,0,0,1,6.313-1.116,18.38,18.38,0,0,1,6.367,1.116,16.116,16.116,0,0,1,5.3,3.135,14.863,14.863,0,0,1,3.584,4.941A15.267,15.267,0,0,1,570.31-31.03ZM619.423,0V-78.11H606.369V0ZM699.78-28.248A29.263,29.263,0,0,0,697.533-39.7a28.958,28.958,0,0,0-6.26-9.362,29.227,29.227,0,0,0-9.523-6.313,30.937,30.937,0,0,0-12.037-2.3,30.323,30.323,0,0,0-12.037,2.354,29.941,29.941,0,0,0-9.523,6.367,29.525,29.525,0,0,0-6.313,9.416,29.056,29.056,0,0,0-2.3,11.5,28.873,28.873,0,0,0,2.247,11.4,29.114,29.114,0,0,0,6.26,9.309,29.226,29.226,0,0,0,9.523,6.313,30.657,30.657,0,0,0,11.931,2.3A30.712,30.712,0,0,0,681.59-1.07a29.79,29.79,0,0,0,9.576-6.367,29.687,29.687,0,0,0,6.313-9.362A28.672,28.672,0,0,0,699.78-28.248Zm-13.054.214a20.623,20.623,0,0,1-1.169,7.009,16.909,16.909,0,0,1-3.4,5.725,16.448,16.448,0,0,1-5.37,3.905,16.717,16.717,0,0,1-7.071,1.445,16.2,16.2,0,0,1-6.859-1.445,17.056,17.056,0,0,1-5.424-3.905,17.628,17.628,0,0,1-3.562-5.831,19.933,19.933,0,0,1-1.276-7.115,20.623,20.623,0,0,1,1.169-7.009,16.909,16.909,0,0,1,3.4-5.725,16.449,16.449,0,0,1,5.37-3.905,16.459,16.459,0,0,1,6.966-1.444,16.455,16.455,0,0,1,6.964,1.444,16.675,16.675,0,0,1,5.424,3.959A18.385,18.385,0,0,1,685.45-35.1,19.5,19.5,0,0,1,686.726-28.034Zm91.057-.214a32.724,32.724,0,0,0-2.242-12.519,28.9,28.9,0,0,0-5.924-9.256,24.567,24.567,0,0,0-8.379-5.724,25.373,25.373,0,0,0-9.714-1.926,20.2,20.2,0,0,0-11.421,3.05,28.177,28.177,0,0,0-7.686,7.543V-78.11H719.361V0h13.054l-.107-8.774a29.772,29.772,0,0,0,7.6,6.955,20.769,20.769,0,0,0,11.556,3,25.884,25.884,0,0,0,9.791-1.926A24.5,24.5,0,0,0,769.7-6.474a28.173,28.173,0,0,0,5.885-9.255A33.366,33.366,0,0,0,777.783-28.248Zm-13.054,0a21.051,21.051,0,0,1-1.284,7.543,17.336,17.336,0,0,1-3.477,5.725,15.329,15.329,0,0,1-5.136,3.638,15.48,15.48,0,0,1-6.259,1.284,15.859,15.859,0,0,1-6.313-1.284,15.4,15.4,0,0,1-5.243-3.691,18.345,18.345,0,0,1-3.584-5.725,19.881,19.881,0,0,1-1.338-7.49,19.881,19.881,0,0,1,1.338-7.49,18.345,18.345,0,0,1,3.584-5.724,15.4,15.4,0,0,1,5.243-3.692,15.859,15.859,0,0,1,6.313-1.284,15.48,15.48,0,0,1,6.259,1.284,15.329,15.329,0,0,1,5.136,3.638,17.337,17.337,0,0,1,3.477,5.725A21.051,21.051,0,0,1,764.729-28.248ZM844.872,0V-33.491q0-11.342-6.1-17.6t-18.725-6.259a47.62,47.62,0,0,0-11.877,1.284,59.578,59.578,0,0,0-9.63,3.424l3.531,10.379a56.081,56.081,0,0,1,7.6-2.568,34.491,34.491,0,0,1,8.56-.963q6.741,0,10.326,3.1t3.584,8.988v1.391a52.745,52.745,0,0,0-6.9-1.712,50.413,50.413,0,0,0-8.721-.642,35.521,35.521,0,0,0-9.148,1.123,21.393,21.393,0,0,0-7.276,3.371,15.614,15.614,0,0,0-4.761,5.671,17.736,17.736,0,0,0-1.712,8.025v.214a16.431,16.431,0,0,0,1.658,7.544,16.48,16.48,0,0,0,4.387,5.457A18.982,18.982,0,0,0,806.031.054a25.966,25.966,0,0,0,7.7,1.124,23.276,23.276,0,0,0,10.914-2.354,24.2,24.2,0,0,0,7.383-5.778V0ZM832.353-20.437a10.522,10.522,0,0,1-1.123,4.869,10.952,10.952,0,0,1-3.156,3.745,15.336,15.336,0,0,1-4.761,2.408,19.749,19.749,0,0,1-5.939.856,13.5,13.5,0,0,1-7.758-2.14,7.033,7.033,0,0,1-3.156-6.206v-.214a7.688,7.688,0,0,1,3.424-6.741q3.424-2.354,9.523-2.354a37.984,37.984,0,0,1,7.115.642,33.133,33.133,0,0,1,5.831,1.6ZM880.5,0V-78.11H867.449V0Z" transform="translate(645.08 574.256)" fill="#fff"/>
  </g>
</svg>
