<svg width="38" height="62" viewBox="0 0 38 62" fill="none" xmlns="http://www.w3.org/2000/svg">
<path d="M37.267 40.436C36.428 34.143 33.052 28.347 28 24.505V20.184C28 12.705 25.087 5.67401 19.799 0.385006L19.707 0.293006C19.316 -0.0979941 18.684 -0.0979941 18.293 0.293006L18.201 0.385006C12.913 5.67301 10 12.705 10 20.184V24.505C4.948 28.347 1.572 34.143 0.733004 40.436L0.00900377 45.868C-0.0539962 46.342 0.227004 46.795 0.680004 46.948C0.786004 46.983 0.894004 47 1 47C1.351 47 1.687 46.814 1.868 46.496L2.891 44.705C4.383 42.095 7.048 40.387 10 40.066V41C10 41.552 10.448 42 11 42H12V45C12 45.552 12.448 46 13 46H18V50H20V46H25C25.552 46 26 45.552 26 45V42H27C27.552 42 28 41.552 28 41V40.067C30.952 40.387 33.617 42.096 35.109 44.706L36.132 46.497C36.314 46.814 36.649 47 37 47C37.106 47 37.214 46.983 37.32 46.947C37.773 46.794 38.054 46.342 37.991 45.867L37.267 40.436ZM19 2.43501C21.101 4.68101 22.755 7.24001 23.93 10H14.07C15.245 7.24001 16.899 4.68101 19 2.43501ZM2.575 41.751L2.715 40.7C3.414 35.454 6.048 30.597 10 27.109V38.053C7.137 38.309 4.481 39.64 2.575 41.751ZM24 44H14V42H24V44ZM26 40H12V20.184C12 17.36 12.452 14.606 13.313 12H24.688C25.548 14.606 26 17.36 26 20.184V40ZM28 38.054V27.109C31.952 30.598 34.585 35.455 35.285 40.7L35.425 41.751C33.519 39.64 30.863 38.309 28 38.054Z" fill="#282F86"/>
<path d="M19 18C15.691 18 13 20.691 13 24C13 27.309 15.691 30 19 30C22.309 30 25 27.309 25 24C25 20.691 22.309 18 19 18ZM19 28C16.794 28 15 26.206 15 24C15 21.794 16.794 20 19 20C21.206 20 23 21.794 23 24C23 26.206 21.206 28 19 28Z" fill="#282F86"/>
<path d="M23.832 47.445L22.168 48.554L23.231 50.149C23.734 50.904 24 51.782 24 52.689C24 53.912 23.524 55.062 22.659 55.927L19 59.586L15.341 55.927C14.476 55.062 14 53.912 14 52.689C14 51.782 14.266 50.904 14.769 50.149L15.832 48.554L14.168 47.445L13.105 49.04C12.382 50.124 12 51.386 12 52.689C12 54.446 12.684 56.099 13.927 57.341L18.293 61.707C18.488 61.902 18.744 62 19 62C19.256 62 19.512 61.902 19.707 61.707L24.073 57.341C25.316 56.099 26 54.446 26 52.689C26 51.386 25.618 50.124 24.895 49.04L23.832 47.445Z" fill="#282F86"/>
</svg>
