<svg width="36" height="36" viewBox="0 0 36 36" fill="none" xmlns="http://www.w3.org/2000/svg">
<path d="M27.28 23.9C26.9882 23.607 26.6415 23.3745 26.2597 23.2159C25.8778 23.0573 25.4685 22.9756 25.055 22.9756C24.6415 22.9756 24.2321 23.0573 23.8503 23.2159C23.4685 23.3745 23.1217 23.607 22.83 23.9L21 25.77C18.5082 24.9288 16.2527 23.5062 14.42 21.62C12.5139 19.7802 11.077 17.51 10.23 15L12.1 13.13C12.393 12.8383 12.6254 12.4915 12.7841 12.1097C12.9427 11.7279 13.0244 11.3185 13.0244 10.905C13.0244 10.4915 12.9427 10.0821 12.7841 9.70031C12.6254 9.31849 12.393 8.97175 12.1 8.68L8.29998 4.92C7.70816 4.33315 6.90844 4.00388 6.07498 4.00388C5.24152 4.00388 4.44181 4.33315 3.84998 4.92L1.84999 6.92C1.10387 7.66325 0.556309 8.58195 0.257539 9.59183C-0.0412316 10.6017 -0.081652 11.6704 0.139985 12.7C1.52754 18.3089 4.38175 23.4478 8.40998 27.59C12.5522 31.6182 17.6911 34.4724 23.3 35.86C23.7308 35.9505 24.1697 35.9974 24.61 36C25.4455 35.999 26.2725 35.8323 27.0432 35.5096C27.8139 35.1869 28.513 34.7146 29.1 34.12L31.1 32.12C31.6749 31.5317 31.9977 30.7425 32 29.92C32.001 29.5075 31.9202 29.0989 31.7623 28.7179C31.6044 28.3368 31.3725 27.9909 31.08 27.7L27.28 23.9ZM29.66 30.73L27.66 32.73C27.1474 33.2495 26.5124 33.6317 25.8134 33.8414C25.1144 34.0511 24.3739 34.0816 23.66 33.93C18.426 32.6244 13.6304 29.9576 9.75998 26.2C6.02054 22.3191 3.37735 17.5158 2.09998 12.28C1.94528 11.567 1.97325 10.8265 2.18129 10.1272C2.38933 9.42788 2.7707 8.79249 3.28998 8.28L5.28998 6.28C5.50605 6.08607 5.79002 5.98542 6.07998 6C6.23094 5.99916 6.38051 6.02884 6.51971 6.08727C6.65891 6.1457 6.78485 6.23167 6.88998 6.34L10.68 10.13C10.8937 10.3454 11.0137 10.6366 11.0137 10.94C11.0137 11.2434 10.8937 11.5346 10.68 11.75L8.40998 14C8.29293 14.1154 8.20614 14.258 8.1573 14.4149C8.10846 14.5719 8.09908 14.7385 8.12998 14.9C8.98349 17.9939 10.6677 20.7952 13 23C15.2125 25.3192 18.0169 26.9894 21.11 27.83C21.2715 27.8609 21.4381 27.8515 21.595 27.8027C21.752 27.7538 21.8945 27.6671 22.01 27.55L24.29 25.27C24.509 25.0633 24.7988 24.9481 25.1 24.9481C25.4012 24.9481 25.691 25.0633 25.91 25.27L29.7 29.07C29.8074 29.1758 29.8928 29.3019 29.9511 29.4409C30.0095 29.58 30.0397 29.7292 30.04 29.88C30.042 30.0407 30.009 30.2 29.9434 30.3468C29.8778 30.4935 29.7811 30.6243 29.66 30.73Z" fill="#282F86"/>
<path d="M29.71 0H22.29C20.5747 0.0497053 18.9492 0.777753 17.77 2.02443C16.5908 3.2711 15.9542 4.9346 16 6.65V17.87C15.9936 18.2768 16.1054 18.6767 16.322 19.0211C16.5386 19.3655 16.8506 19.6396 17.22 19.81C17.5649 19.9708 17.9485 20.0299 18.3258 19.9803C18.7031 19.9307 19.0584 19.7745 19.35 19.53L22.67 16.84H29.67C30.5223 16.8192 31.3623 16.6307 32.1417 16.2853C32.9212 15.9398 33.625 15.4441 34.2128 14.8265C34.8007 14.209 35.2611 13.4816 35.5677 12.6861C35.8744 11.8905 36.0213 11.0423 36 10.19V6.65C36.0457 4.9346 35.4092 3.2711 34.23 2.02443C33.0508 0.777753 31.4253 0.0497053 29.71 0ZM34 10.19C34.0434 11.3744 33.6167 12.5278 32.8131 13.3989C32.0094 14.27 30.894 14.788 29.71 14.84H22.71C22.2346 14.8372 21.7737 15.0038 21.41 15.31L18.07 18C18.07 18 18 18 18 17.87V6.65C17.9566 5.46564 18.3833 4.31216 19.1869 3.44108C19.9905 2.57001 21.106 2.052 22.29 2H29.71C30.894 2.052 32.0094 2.57001 32.8131 3.44108C33.6167 4.31216 34.0434 5.46564 34 6.65V10.19Z" fill="#282F86"/>
<path d="M30 5H23C22.7348 5 22.4804 5.10536 22.2929 5.29289C22.1054 5.48043 22 5.73478 22 6C22 6.26522 22.1054 6.51957 22.2929 6.70711C22.4804 6.89464 22.7348 7 23 7H30C30.2652 7 30.5196 6.89464 30.7071 6.70711C30.8946 6.51957 31 6.26522 31 6C31 5.73478 30.8946 5.48043 30.7071 5.29289C30.5196 5.10536 30.2652 5 30 5Z" fill="#282F86"/>
<path d="M27 10H23C22.7348 10 22.4804 10.1054 22.2929 10.2929C22.1054 10.4804 22 10.7348 22 11C22 11.2652 22.1054 11.5196 22.2929 11.7071C22.4804 11.8946 22.7348 12 23 12H27C27.2652 12 27.5196 11.8946 27.7071 11.7071C27.8946 11.5196 28 11.2652 28 11C28 10.7348 27.8946 10.4804 27.7071 10.2929C27.5196 10.1054 27.2652 10 27 10Z" fill="#282F86"/>
</svg>
