<svg width="63" height="62" viewBox="0 0 63 62" fill="none" xmlns="http://www.w3.org/2000/svg">
<path d="M30.15 21.05C26.66 21.44 23.88 24.3 23.54 27.85C23.3 30.35 24.29 32.81 26.18 34.42C26.55 34.73 26.76 35.19 26.76 35.67V37.94C26.76 39.63 28.11 41 29.76 41H32.26C33.91 41 35.26 39.63 35.26 37.94V35.77C35.26 35.22 35.47 34.72 35.82 34.42C37.53 32.97 38.51 30.85 38.51 28.6C38.51 26.35 37.58 24.34 35.97 22.89C34.37 21.46 32.3 20.8 30.16 21.04L30.15 21.05ZM32.25 39H29.75C29.2 39 28.75 38.53 28.75 37.94V36.91L33.25 36.98V37.94C33.25 38.52 32.8 39 32.25 39ZM34.63 24.39C35.82 25.45 36.5 26.99 36.5 28.6C36.5 30.21 35.78 31.83 34.52 32.9C33.91 33.42 33.49 34.16 33.33 34.98L32 34.96V32.41L34.71 29.7L33.3 28.29L31.01 30.58L28.72 28.29L27.31 29.7L30.02 32.41V34.93L28.69 34.91C28.52 34.13 28.11 33.42 27.49 32.89C26.1 31.7 25.37 29.88 25.55 28.03C25.8 25.46 27.88 23.31 30.39 23.03C30.6 23.01 30.81 22.99 31.02 22.99C32.36 22.99 33.63 23.47 34.64 24.38L34.63 24.39Z" fill="#282F86"/>
<path d="M16 31C16 39.27 22.73 46 31 46C39.27 46 46 39.27 46 31C46 22.73 39.27 16 31 16C22.73 16 16 22.73 16 31ZM44 31C44 38.17 38.17 44 31 44C23.83 44 18 38.17 18 31C18 23.83 23.83 18 31 18C38.17 18 44 23.83 44 31Z" fill="#282F86"/>
<path d="M1.00001 33C1.10001 33 1.20001 32.98 1.30001 32.95L8.17001 30.75C8.52001 30.64 8.78001 30.34 8.85001 29.98C8.92001 29.62 8.78001 29.25 8.49001 29.02L6.14001 27.15C11.08 21.16 20.38 12 30.99 12C39.4 12 47.01 17.88 51.92 22.81C52.27 23.16 53.43 24.38 53.67 24.65L55.14 23.3C54.89 23.03 53.69 21.77 53.33 21.4C48.16 16.2 40.08 10 30.99 10C19.55 10 9.74001 19.63 4.57001 25.9L2.23001 24.03C1.94001 23.8 1.55001 23.75 1.21001 23.89C0.870008 24.04 0.640008 24.36 0.610008 24.72L7.81892e-06 31.91C-0.0299922 32.24 0.110008 32.57 0.370008 32.78C0.550008 32.92 0.770008 33 0.990008 33H1.00001ZM2.45001 26.76L5.78001 29.42L2.12001 30.59L2.45001 26.76Z" fill="#282F86"/>
<path d="M32 0H30V6H32V0Z" fill="#282F86"/>
<path d="M45.7782 3.40428L42.1992 8.21994L43.8044 9.41295L47.3834 4.59729L45.7782 3.40428Z" fill="#282F86"/>
<path d="M60.73 29.05L53.86 31.25C53.51 31.36 53.25 31.66 53.18 32.02C53.11 32.38 53.25 32.75 53.54 32.98L55.89 34.85C50.95 40.84 41.65 50 31.04 50C22.63 50 15.02 44.12 10.11 39.19C9.76001 38.84 8.60001 37.61 8.36001 37.35L6.89001 38.7C7.14001 38.97 8.34001 40.23 8.70001 40.6C13.87 45.8 21.95 52 31.04 52C42.48 52 52.29 42.37 57.46 36.1L59.8 37.97C59.98 38.11 60.2 38.19 60.42 38.19C60.55 38.19 60.69 38.16 60.82 38.11C61.16 37.96 61.39 37.64 61.42 37.28L62.03 30.09C62.06 29.76 61.92 29.43 61.66 29.22C61.4 29.01 61.05 28.95 60.73 29.05ZM59.58 35.24L56.25 32.58L59.91 31.41L59.58 35.24Z" fill="#282F86"/>
<path d="M16.2301 3.4038L14.6247 4.59653L18.2029 9.41281L19.8083 8.22008L16.2301 3.4038Z" fill="#282F86"/>
<path d="M32 55.82H30V61.82H32V55.82Z" fill="#282F86"/>
<path d="M43.8034 52.4069L42.1982 53.5999L45.7772 58.4156L47.3825 57.2226L43.8034 52.4069Z" fill="#282F86"/>
<path d="M18.1972 52.399L14.619 57.2153L16.2245 58.408L19.8027 53.5918L18.1972 52.399Z" fill="#282F86"/>
</svg>
