<svg xmlns="http://www.w3.org/2000/svg" width="254.39" height="252.942" viewBox="0 0 254.39 252.942">
  <g id="Cost_Managementy" data-name="Cost Managementy" transform="translate(-8.48)">
    <path id="Path_7" data-name="Path 7" d="M199.487,90.5H188.443a60.16,60.16,0,0,1-6.72,16.238l7.822,7.822a3.378,3.378,0,0,1,0,4.77L173.72,135.161a3.378,3.378,0,0,1-4.77,0l-7.822-7.822a59.033,59.033,0,0,1-16.238,6.72v11.066a3.4,3.4,0,0,1-3.381,3.392H119.144a3.4,3.4,0,0,1-3.392-3.392V134.059a59.675,59.675,0,0,1-16.228-6.741l-7.833,7.843a3.378,3.378,0,0,1-4.77,0L71.129,119.368a3.378,3.378,0,0,1,0-4.77l7.822-7.822A60.221,60.221,0,0,1,72.21,90.538H61.145a3.416,3.416,0,0,1-3.392-3.392V64.761a3.4,3.4,0,0,1,3.392-3.381H72.2A59.852,59.852,0,0,1,78.93,45.141l-7.822-7.812a3.4,3.4,0,0,1,0-4.77l15.8-15.825a3.378,3.378,0,0,1,4.77,0l7.833,7.822a59.857,59.857,0,0,1,16.238-6.731V6.761a3.384,3.384,0,0,1,3.392-3.371h22.343a3.368,3.368,0,0,1,3.381,3.371V17.816a60.143,60.143,0,0,1,16.249,6.741l7.822-7.822a3.378,3.378,0,0,1,4.77,0L189.5,32.528a3.378,3.378,0,0,1,0,4.77l-7.78,7.843a59.884,59.884,0,0,1,6.741,16.238h11.055a3.4,3.4,0,0,1,3.381,3.381V87.1a3.4,3.4,0,0,1-3.392,3.392ZM143.523,63.87a11,11,0,0,0-9.8-10.9l.021-2.173h.011a3.375,3.375,0,0,0-5.787-2.512A3.4,3.4,0,0,0,127,50.748v2.226a10.991,10.991,0,0,0-9.868,10.9v4.515a10.993,10.993,0,0,0,10.949,10.96h4.5a4.18,4.18,0,0,1,4.187,4.176v4.473a4.189,4.189,0,0,1-4.187,4.187h-4.5a4.18,4.18,0,0,1-4.176-4.187,3.387,3.387,0,1,0-6.773,0,11,11,0,0,0,9.857,10.9v2.173a3.371,3.371,0,1,0,6.741.053l.021-2.226a10.994,10.994,0,0,0,9.773-10.9v-4.5a10.979,10.979,0,0,0-10.96-10.949h-4.5l.011-.011a4.18,4.18,0,0,1-4.187-4.176v-4.5a4.162,4.162,0,0,1,4.187-4.176h4.494a4.18,4.18,0,0,1,4.187,4.176,3.387,3.387,0,1,0,6.773,0ZM130.316,36.419a39.521,39.521,0,1,0,39.515,39.525v-.011a39.518,39.518,0,0,0-39.515-39.515Zm0,6.773a32.754,32.754,0,1,0,32.752,32.752v-.011a32.751,32.751,0,0,0-32.752-32.741ZM70.789,168.21a3.369,3.369,0,0,1,1.219,2.438,3.393,3.393,0,0,1-5.989,2.332L40.581,147.541a16.115,16.115,0,0,1-5.141-11.808l.233-49.6a7.943,7.943,0,0,0-7.949-7.949c-4.579,0-7.547,4.007-7.95,8.268l-9.762,73.094A14.83,14.83,0,0,0,15.7,173.364L48.192,198.23a11.3,11.3,0,0,1,4.558,9.137l.1,12.973H97.807l.042-38.01c0-5.6-3.455-9.773-7.356-13.387q-16.137-14.929-32.255-29.815a5.84,5.84,0,0,0-8.426,8.056L70.8,168.17ZM42.17,135.755l.254-49.626v-.011A14.738,14.738,0,0,0,27.691,71.406c-8.119,0-13.885,6.614-14.68,14.352L3.323,158.649A21.616,21.616,0,0,0,11.6,178.724l32.477,24.845a4.675,4.675,0,0,1,1.908,3.794l.1,13.567a9.824,9.824,0,0,0-6.391,9.2v16.387a9.821,9.821,0,0,0,9.815,9.815h51.661a9.834,9.834,0,0,0,9.815-9.815V230.13a9.881,9.881,0,0,0-6.423-9.221l.032-38.6c0-7.7-4.1-13.313-9.539-18.337Q78.913,149.023,62.734,134.1a12.371,12.371,0,0,0-17.224.276h.011a12.979,12.979,0,0,0-2.936,4.219v-.011a8.821,8.821,0,0,1-.435-2.83Zm62.07,110.762a3.065,3.065,0,0,1-3.053,3.042H49.494a3.056,3.056,0,0,1-3.042-3.042V230.13a3.074,3.074,0,0,1,3.053-3.053h51.661a3.291,3.291,0,0,1,3.053,3.053v16.387Zm90.382-73.529a3.386,3.386,0,0,1-4.77-4.77l20.987-20.987c2.035-2.586,1.971-5.7-.392-7.971a5.7,5.7,0,0,0-8.1-.042c-2.862,2.576-1.113,1.018-32.179,29.72-3.9,3.625-7.356,7.791-7.356,13.387l.042,38.01h44.962l.1-12.973-.011-.011a11.276,11.276,0,0,1,4.526-9.126l32.477-24.845h.011a14.841,14.841,0,0,0,5.7-13.843L240.91,86.444c-.424-4.271-3.371-8.268-7.95-8.268a7.946,7.946,0,0,0-7.95,7.95l.233,49.6a16.2,16.2,0,0,1-5.141,11.808l-25.438,25.438Zm23.424-34.406a13.1,13.1,0,0,0-2.936-4.219c-5.077-4.886-12.062-4.77-17.3-.2-2.724,2.459,0,0-32.244,29.8-5.416,5.024-9.539,10.631-9.518,18.326l.032,38.6.011.011a9.86,9.86,0,0,0-6.444,9.221v16.387a9.841,9.841,0,0,0,9.815,9.815h51.672a9.846,9.846,0,0,0,9.8-9.815V230.129a9.843,9.843,0,0,0-6.413-9.2l.106-13.567h-.011a4.675,4.675,0,0,1,1.908-3.794l32.5-24.845a21.6,21.6,0,0,0,8.289-20.075l-9.7-72.891c-.784-7.738-6.55-14.352-14.691-14.352h.011a14.747,14.747,0,0,0-14.712,14.712l.254,49.626v.011a8.868,8.868,0,0,1-.435,2.83Zm-61.636,91.546a3.072,3.072,0,0,1,3.053-3.042h51.672a3.067,3.067,0,0,1,3.063,3.042v16.387a3.053,3.053,0,0,1-3.053,3.053H159.463a3.06,3.06,0,0,1-3.053-3.053ZM185.729,83.709H196.1V68.149H185.729a3.392,3.392,0,0,1-3.318-2.724,52.742,52.742,0,0,0-7.706-18.718,3.379,3.379,0,0,1,.3-4.441l7.335-7.335L171.325,23.907l-7.345,7.335a3.38,3.38,0,0,1-4.24.424,52.7,52.7,0,0,0-18.824-7.8,3.4,3.4,0,0,1-2.809-3.339V10.149h-15.57V20.515a3.373,3.373,0,0,1-2.713,3.307,53.075,53.075,0,0,0-18.739,7.727,3.353,3.353,0,0,1-4.431-.307l-7.345-7.335L78.294,34.931l7.335,7.335a3.383,3.383,0,0,1,.424,4.24A52.641,52.641,0,0,0,78.241,65.33v-.011A3.378,3.378,0,0,1,74.9,68.128H64.536V83.7H74.9v.011a3.394,3.394,0,0,1,3.328,2.713,52.5,52.5,0,0,0,7.7,18.729,3.379,3.379,0,0,1-.3,4.441l-7.335,7.335L89.307,127.95l7.335-7.335h.011a3.37,3.37,0,0,1,4.24-.435,52.873,52.873,0,0,0,18.824,7.833,3.378,3.378,0,0,1,2.809,3.328v10.366H138.1V131.342a3.388,3.388,0,0,1,2.713-3.307,52.809,52.809,0,0,0,18.729-7.716,3.392,3.392,0,0,1,4.452.3l7.335,7.335,11.023-11.023-7.335-7.335L175,109.6a3.383,3.383,0,0,1-.424-4.24,52.67,52.67,0,0,0,7.812-18.814,3.39,3.39,0,0,1,3.339-2.83Z" transform="translate(5.355 -3.39)" fill="#4d539a" fill-rule="evenodd"/>
  </g>
</svg>
