<svg xmlns="http://www.w3.org/2000/svg" width="264.659" height="264.679" viewBox="0 0 264.659 264.679">
  <g id="Expand_Your_Markets" data-name="Expand Your Markets" transform="translate(-10.342)">
    <path id="Path_8" data-name="Path 8" d="M241.828,54.726A132.3,132.3,0,1,0,54.671,241.773l.055.055A132.3,132.3,0,1,0,241.883,54.781Zm29.934,93.551a126.394,126.394,0,0,1-1.433,18.8l-19.35-19.35a13.221,13.221,0,0,0-9.372-3.859H223.25a4.423,4.423,0,0,1-4.41-4.41v-.772a13.221,13.221,0,0,0-3.859-9.372L197.34,111.673a4.425,4.425,0,0,1,0-6.229l4.41-4.41a13.221,13.221,0,0,0,3.859-9.372V76.943a13.221,13.221,0,0,0-3.859-9.372l-8.1-8.049a4.37,4.37,0,0,1-1.268-3.142V32.9A123.628,123.628,0,0,1,271.762,148.277ZM157.1,25.123V47.615a4.464,4.464,0,0,1-1.268,3.142l-8.1,8.049a13.221,13.221,0,0,0-3.859,9.372V78.486a4.464,4.464,0,0,1-1.268,3.142L125.675,98.5a4.37,4.37,0,0,1-3.142,1.268h-5.127a4.423,4.423,0,0,1-4.41-4.41V85.763a13.221,13.221,0,0,0-3.859-9.372l-8.1-8.049a13.221,13.221,0,0,0-9.372-3.859H76.943A4.464,4.464,0,0,1,73.8,63.216l-7.387-7.387a122.532,122.532,0,0,1,81.864-31.037C151.254,24.792,154.176,24.9,157.1,25.123ZM60.074,61.893l7.552,7.552A13.221,13.221,0,0,0,77,73.3H91.717a4.464,4.464,0,0,1,3.142,1.268l8.049,8.049a4.37,4.37,0,0,1,1.268,3.142v9.592a13.269,13.269,0,0,0,13.231,13.231h5.182a13.221,13.221,0,0,0,9.372-3.859l16.869-16.869a13.221,13.221,0,0,0,3.859-9.372V68.177a4.464,4.464,0,0,1,1.268-3.142l8.1-8.1a13.221,13.221,0,0,0,3.859-9.372V26.06a121.344,121.344,0,0,1,17.641,3.859V56.435a13.221,13.221,0,0,0,3.859,9.372l8.049,8.049A4.37,4.37,0,0,1,196.734,77V91.717a4.464,4.464,0,0,1-1.268,3.142l-4.41,4.41a13.176,13.176,0,0,0,0,18.688L208.7,135.6a4.37,4.37,0,0,1,1.268,3.142v.772a13.269,13.269,0,0,0,13.231,13.231h18.412a4.464,4.464,0,0,1,3.142,1.268l23.539,23.539a120.514,120.514,0,0,1-12.79,32.084l-26.571-26.626a13.221,13.221,0,0,0-9.372-3.859H192.379a13.269,13.269,0,0,0-13.231,13.231,4.423,4.423,0,0,1-4.41,4.41H151.916a13.221,13.221,0,0,0-9.372,3.859l-21.279,21.334a13.221,13.221,0,0,0-3.859,9.372V267.9a121.517,121.517,0,0,1-35.943-15.711l23.209-23.209a13.221,13.221,0,0,0,3.859-9.372V160.736a13.221,13.221,0,0,0-3.859-9.372L83.392,130.085a4.37,4.37,0,0,1-1.268-3.142V104.175A13.269,13.269,0,0,0,68.894,90.945H38.85A122.2,122.2,0,0,1,60.074,61.893ZM24.792,148.277A123.326,123.326,0,0,1,34.66,99.765H68.894a4.423,4.423,0,0,1,4.41,4.41V127a13.221,13.221,0,0,0,3.859,9.372l21.279,21.279a4.37,4.37,0,0,1,1.268,3.142v58.821a4.464,4.464,0,0,1-1.268,3.142L74.131,247.065A130,130,0,0,1,60.956,235.6,122.724,122.724,0,0,1,24.792,148.277ZM235.6,235.6a123.5,123.5,0,0,1-109.372,34.179V231.3a4.464,4.464,0,0,1,1.268-3.142l21.279-21.279a4.37,4.37,0,0,1,3.142-1.268h22.823a13.269,13.269,0,0,0,13.231-13.23,4.423,4.423,0,0,1,4.41-4.41h27.233a4.464,4.464,0,0,1,3.142,1.268l28,28A124.217,124.217,0,0,1,235.6,235.6Z" transform="translate(-5.596 -15.937)" fill="#4d539a"/>
    <path id="Path_9" data-name="Path 9" d="M261.742,262.871h-8.82V232H244.1v30.871h-8.82V236.41h-8.82v26.461h-8.82V245.231h-8.82v17.641H200v8.82h61.742Z" transform="translate(-88.19 -112.891)" fill="#4d539a"/>
    <path id="Path_10" data-name="Path 10" d="M252.922,184.263v5.788h8.82V168H239.692v8.82h8.049l-.11.165A62.754,62.754,0,0,1,200,198.871v8.82A71.4,71.4,0,0,0,252.922,184.263Z" transform="translate(-88.19 -84.172)" fill="#4d539a"/>
    <path id="Path_11" data-name="Path 11" d="M120.256,318.326a13.311,13.311,0,0,0,2.205-7.332v-1.764a13.231,13.231,0,1,0-26.461,0v1.764a13.311,13.311,0,0,0,2.205,7.332l11.025,16.538Zm-15.436-7.332v-1.764a4.41,4.41,0,1,1,8.82,0v1.764a4.627,4.627,0,0,1-.717,2.426l-3.694,5.513-3.694-5.513A4.78,4.78,0,0,1,104.82,310.995Z" transform="translate(-41.522 -141.609)" fill="#4d539a"/>
    <path id="Path_12" data-name="Path 12" d="M82.461,214.995v-1.764a13.231,13.231,0,1,0-26.461,0v1.764a13.311,13.311,0,0,0,2.205,7.332l11.025,16.538,11.025-16.538A13.448,13.448,0,0,0,82.461,214.995Zm-8.82,0a4.626,4.626,0,0,1-.717,2.426l-3.694,5.513-3.694-5.513a4.3,4.3,0,0,1-.717-2.426v-1.764a4.41,4.41,0,0,1,8.82,0Z" transform="translate(-23.573 -98.532)" fill="#4d539a"/>
    <path id="Path_13" data-name="Path 13" d="M197.231,94.81l11.025-16.538a13.311,13.311,0,0,0,2.205-7.332V69.231a13.231,13.231,0,0,0-26.461,0v1.764a13.311,13.311,0,0,0,2.205,7.332Zm-4.41-25.579a4.41,4.41,0,1,1,8.82,0v1.764a4.626,4.626,0,0,1-.717,2.426l-3.694,5.513-3.694-5.513a4.3,4.3,0,0,1-.717-2.426Z" transform="translate(-81.01 -33.915)" fill="#4d539a"/>
    <path id="Path_14" data-name="Path 14" d="M397.23,174.81l11.025-16.538a13.311,13.311,0,0,0,2.205-7.332v-1.709a13.231,13.231,0,1,0-26.461,0v1.764a13.311,13.311,0,0,0,2.205,7.332Zm-4.41-25.579a4.41,4.41,0,1,1,8.82,0v1.764a4.626,4.626,0,0,1-.717,2.426l-3.694,5.513-3.694-5.513a4.3,4.3,0,0,1-.717-2.426Z" transform="translate(-170.756 -69.813)" fill="#4d539a"/>
    <path id="Path_15" data-name="Path 15" d="M357.231,352A13.269,13.269,0,0,0,344,365.231v1.764a13.311,13.311,0,0,0,2.205,7.332l11.025,16.538,11.025-16.538a13.311,13.311,0,0,0,2.205-7.332v-1.764A13.269,13.269,0,0,0,357.231,352Zm4.41,14.995a4.627,4.627,0,0,1-.717,2.426l-3.694,5.513-3.694-5.513a4.3,4.3,0,0,1-.717-2.426v-1.764a4.41,4.41,0,0,1,8.82,0Z" transform="translate(-152.807 -166.738)" fill="#4d539a"/>
    <path id="Path_16" data-name="Path 16" d="M277.23,384A13.269,13.269,0,0,0,264,397.23v1.764a13.311,13.311,0,0,0,2.205,7.332l11.025,16.538,11.025-16.538a13.311,13.311,0,0,0,2.205-7.332V397.23A13.269,13.269,0,0,0,277.23,384Zm4.41,14.995a4.626,4.626,0,0,1-.717,2.426l-3.694,5.513-3.694-5.513a4.3,4.3,0,0,1-.717-2.426V397.23a4.41,4.41,0,0,1,8.82,0Z" transform="translate(-116.908 -181.098)" fill="#4d539a"/>
  </g>
</svg>
