<svg xmlns="http://www.w3.org/2000/svg" width="296.433" height="252.942" viewBox="0 0 296.433 252.942">
  <g id="Guaranteed_Payments" data-name="Guaranteed Payments" transform="translate(-3.246)">
    <path id="Path_20" data-name="Path 20" d="M67.966,213.638a4.491,4.491,0,1,1,0-8.982h74.015a4.491,4.491,0,1,1,0,8.982Zm202.059-15.789a4.495,4.495,0,0,1,6.357,6.357l-19.147,19.147a4.5,4.5,0,0,1-6.357,0l-11.323-11.323a4.495,4.495,0,1,1,6.357-6.357l8.145,8.145ZM225.2,233.195a3.484,3.484,0,0,1,.386.579,33.263,33.263,0,0,0,9.342,8.9l18.915,12.16a4.314,4.314,0,0,0,4.812,0l18.915-12.16a31.421,31.421,0,0,0,14.888-27.292V174.6L276.9,172.781c-.154-.013-.309-.026-.463-.051l-20.2-2.355-36.222,4.22v40.791a32.387,32.387,0,0,0,3.835,15.621c.412.746.849,1.48,1.312,2.188Zm-5.79,7.3a41.916,41.916,0,0,0,10.68,9.728L249,262.378a13.414,13.414,0,0,0,7.244,2.175,13.243,13.243,0,0,0,7.244-2.175l18.915-12.16A40.493,40.493,0,0,0,301.436,215.4v-44.78a4.481,4.481,0,0,0-4.195-4.478l-15.557-1.814V95.049a18.583,18.583,0,0,0-18.555-18.555h-4.491l-13.4-51.045A18.558,18.558,0,0,0,222.6,12.221L18.841,65.684A18.579,18.579,0,0,0,5.613,88.344L33.922,196.185v25.748a18.583,18.583,0,0,0,18.555,18.555ZM52.475,231.509h161.72a41.662,41.662,0,0,1-3.14-16.11v-44.78h.013a4.481,4.481,0,0,1,3.976-4.452l40.609-4.735a4.648,4.648,0,0,1,1.119-.013l15.956,1.866V113.926L42.9,113.887V221.91a9.621,9.621,0,0,0,9.586,9.586ZM33.907,160.88,19.058,104.3l14.849-3.9Zm8.982-65.842a9.621,9.621,0,0,1,9.586-9.586H263.141a9.621,9.621,0,0,1,9.586,9.586v9.882L42.9,104.908V95.025Zm-8.544-4.015L16.768,95.63l-2.432-9.265a3.871,3.871,0,0,0-.142-.553,9.651,9.651,0,0,1,6.652-11.388,4.63,4.63,0,0,0,.566-.154L224.875,20.856a9.661,9.661,0,0,1,11.709,6.82v.013l2.509,9.56L89.753,76.456H52.477A18.6,18.6,0,0,0,34.36,91Zm90.7-14.54L241.358,45.949l8.016,30.534ZM67.954,193.9a4.491,4.491,0,1,1,0-8.982H120.9a4.491,4.491,0,1,1,0,8.982Zm6.318-63.526h40.751A10.851,10.851,0,0,1,125.845,141.2v22.7a10.851,10.851,0,0,1-10.822,10.822H74.272A10.851,10.851,0,0,1,63.45,163.894V141.2a10.851,10.851,0,0,1,10.822-10.822Zm40.751,8.982a1.845,1.845,0,0,1,1.827,1.827v22.7a1.845,1.845,0,0,1-1.827,1.827H74.272a1.845,1.845,0,0,1-1.827-1.827v-22.7a1.845,1.845,0,0,1,1.827-1.827Z" transform="translate(-1.757 -11.611)" fill="#4d539a" fill-rule="evenodd"/>
  </g>
</svg>
