<svg xmlns="http://www.w3.org/2000/svg" width="271.822" height="291.461" viewBox="0 0 271.822 291.461">
  <g id="No_Supply_Chain_Disruptions" data-name="No Supply Chain Disruptions" transform="translate(-9.16)">
    <path id="Path_26" data-name="Path 26" d="M99.488,24.635,96.742,22.94c-4.938-3.039-.38-10.49,4.587-7.48C119.27,26.446,118.481,23,106.442,40.033c-3.331,4.733-10.519-.321-7.159-5.055l.906-1.286A119.093,119.093,0,0,0,50.926,65.688c-3.886,4.208-10.4-1.665-6.428-5.961A127.953,127.953,0,0,1,99.488,24.635ZM265.8,215.2a20.463,20.463,0,0,1-37.81-14.7l-23.843-12.973v16.83a4.377,4.377,0,0,1-4.383,4.383h-56.6v42.368a20.483,20.483,0,1,1-8.766,0V208.745H77.778a4.377,4.377,0,0,1-4.383-4.383V189.518L49.845,203.456a20.475,20.475,0,1,1-39.884-2.484c4.792-16.6,26.911-20.161,36.641-5.785L73.4,179.321V116.558L44.235,100.721A20.508,20.508,0,1,1,48.881,93.3L73.4,106.624V91.81a4.377,4.377,0,0,1,4.383-4.383h56.568V40.588a20.483,20.483,0,1,1,8.766,0V87.456h56.6a4.377,4.377,0,0,1,4.383,4.383V103.38l23.7-14.025A20.312,20.312,0,0,1,237.958,67.09a20.463,20.463,0,1,1-6.487,30.242l-27.378,16.187v64.048l27.7,15.048a20.536,20.536,0,0,1,25.947-5.259c9.146,4.558,13.821,17.415,8.064,27.817ZM236.351,86.988a4.325,4.325,0,0,1,1.987,4.734,11.686,11.686,0,0,0,19.781-12.389C251.749,67.821,234.042,74.015,236.351,86.988ZM127.042,20.6A11.717,11.717,0,1,0,138.759,8.886,11.734,11.734,0,0,0,127.042,20.6ZM23.986,96.66A11.724,11.724,0,1,0,35.294,76.119C20.976,68.96,10.837,89.355,23.986,96.66Zm5.639,98.322a11.632,11.632,0,0,0-11.22,8.444c-2.863,9.905,7.714,18.583,16.889,13.528C45.842,211.111,41.751,194.982,29.625,194.982Zm109.133,87.862a11.717,11.717,0,1,0-11.717-11.717A11.734,11.734,0,0,0,138.759,282.844ZM82.19,200.008H195.356V96.222H161.9v32.93a4.378,4.378,0,0,1-7.1,3.419L138.759,119.8c-17.561,13.967-16.684,13.7-18.759,13.7a4.377,4.377,0,0,1-4.383-4.383V96.192H82.19V199.979ZM124.383,96.222v23.843l11.658-9.262a4.431,4.431,0,0,1,5.464,0l11.658,9.262V96.222H124.412ZM258.119,210.994a11.726,11.726,0,0,0-10.227-17.356c-12.184,0-16.187,16.187-5.7,21.973a11.733,11.733,0,0,0,15.924-4.617ZM171.25,253.362c-10.081,18.057-11.308,14.873,7.655,23.9,5.23,2.484,9-5.435,3.769-7.918l-2.016-.964a127.4,127.4,0,0,0,53.588-35.589c3.886-4.324-2.659-10.168-6.516-5.844A118.8,118.8,0,0,1,177.474,260.2l1.432-2.571c2.834-5.055-4.821-9.321-7.655-4.266ZM215.05,64.9c20.8,2.221,18.087,4.5,18.963-16.392.234-5.815-8.5-6.107-8.766-.38l-.146,3.8a127.653,127.653,0,0,0-56.1-29.8c-5.639-1.373-7.685,7.159-2.045,8.532a118.663,118.663,0,0,1,49.76,25.625c-7.159-.76-7.071,8.064-1.636,8.649ZM60.861,235.129c5.785,0,5.815-8.766,0-8.766-20.862-.029-18.437-2.542-17.152,18.291.351,5.785,9.116,5.259,8.737-.555l-.146-2.133c23.463,21.418,52.653,29.862,56.714,29.862,5.143,0,6.048-7.422,1.052-8.649A118.562,118.562,0,0,1,57.851,235.1h2.98Zm207.865-67.934-3.506,1.987a128.244,128.244,0,0,0-2.951-57.386c-1.607-5.581-10.022-3.156-8.415,2.425a119.16,119.16,0,0,1,3.331,49.76c-2.863-5.931-10.548-1.695-8.094,3.389,9.058,18.759,5.639,17.824,23.96,7.451C278.1,171.958,273.78,164.332,268.725,167.195ZM12.357,124.389a127.51,127.51,0,0,0,2.279,55.721c1.49,5.61,9.964,3.331,8.474-2.279A119.171,119.171,0,0,1,21.035,125.7l1.49,2.425c3.068,4.938,10.49.321,7.451-4.617C22.525,111.5,22.73,111.766,22.32,111.3a4.383,4.383,0,0,0-4.792-1.14c-.847.321-.847.409-12.155,8.444-4.733,3.36.351,10.519,5.084,7.159l1.928-1.373ZM154.829,182.1h23.521c5.785,0,5.785-8.766,0-8.766H154.829C149.044,173.331,149.044,182.1,154.829,182.1Z" transform="translate(5.677 -0.12)" fill="#4d539a"/>
  </g>
</svg>
