<svg id="Reduce_Idle_Inventory" data-name="Reduce Idle Inventory" xmlns="http://www.w3.org/2000/svg" width="278.086" height="264.679" viewBox="0 0 278.086 264.679">
  <path id="Path_17" data-name="Path 17" d="M1.9,336.8l64.234,37.084.028.014a3.829,3.829,0,0,0,3.745,0l.028-.014L134.171,336.8a3.8,3.8,0,0,0,1.9-3.292V266.358c0-.011,0-.022,0-.033a3.819,3.819,0,0,0-1.871-3.241l-.028-.019L69.937,225.982a3.8,3.8,0,0,0-3.8,0L1.9,263.065c-.01.005-.018.013-.027.018A3.841,3.841,0,0,0,.038,265.83c0,.01,0,.02,0,.03a3.7,3.7,0,0,0-.031.464c0,.011,0,.022,0,.033V333.51A3.8,3.8,0,0,0,1.9,336.8Zm5.7-63.86,56.63,32.695v58.371L7.6,331.315ZM30.3,255.45l56.627,32.7L68.036,299.053l-56.63-32.695ZM43.731,247.7l60.432,34.889v14.9l-5.83,3.346V288.146c0-.011,0-.022,0-.033a3.793,3.793,0,0,0-.031-.464c0-.011,0-.021-.005-.032a3.863,3.863,0,0,0-.083-.412c-.01-.039-.021-.077-.032-.114-.032-.11-.069-.219-.112-.328-.015-.038-.028-.075-.044-.113a3.819,3.819,0,0,0-.2-.4l-.007-.012a3.805,3.805,0,0,0-.248-.371c-.024-.032-.05-.062-.075-.094-.073-.091-.148-.178-.228-.261q-.041-.043-.083-.085a3.792,3.792,0,0,0-.314-.277l-.026-.022a3.781,3.781,0,0,0-.386-.258l-.028-.019L37.9,251.06ZM71.838,364.009V305.637L90.729,294.73v12.663a3.8,3.8,0,0,0,5.694,3.3l13.434-7.71a3.8,3.8,0,0,0,1.91-3.3v-17.1l16.7-9.642v58.372ZM107.965,276l-56.63-32.694,16.7-9.642,56.63,32.693Z" transform="translate(0 -109.711)" fill="#4d539a"/>
  <path id="Path_18" data-name="Path 18" d="M397.509,265.86a3.842,3.842,0,0,0-1.84-2.776l-.028-.019-64.233-37.084a3.8,3.8,0,0,0-3.8,0l-64.233,37.084c-.01.005-.018.013-.027.018a3.831,3.831,0,0,0-1.872,3.241c0,.011,0,.022,0,.033v67.152a3.8,3.8,0,0,0,1.9,3.293l64.234,37.084.028.014a3.831,3.831,0,0,0,3.745,0l.028-.014L395.641,336.8a3.8,3.8,0,0,0,1.9-3.292V266.358c0-.011,0-.022,0-.033A3.471,3.471,0,0,0,397.509,265.86ZM291.771,255.45l56.627,32.7-18.891,10.907-56.63-32.695ZM305.2,247.7l60.432,34.889v14.9l-5.83,3.346V288.146c0-.011,0-.022,0-.033a3.793,3.793,0,0,0-.031-.464c0-.011,0-.021-.005-.032a3.875,3.875,0,0,0-.083-.412c-.01-.039-.021-.077-.032-.114-.032-.11-.069-.219-.112-.328-.015-.038-.028-.075-.044-.113a3.822,3.822,0,0,0-.2-.4l-.006-.012a3.8,3.8,0,0,0-.248-.371c-.024-.032-.05-.062-.075-.094-.073-.091-.148-.178-.228-.261q-.041-.043-.083-.085a3.658,3.658,0,0,0-.314-.276l-.027-.022a3.713,3.713,0,0,0-.385-.257c-.01-.006-.019-.014-.029-.02L299.375,251.06ZM369.436,276l-56.63-32.694,16.7-9.642,56.63,32.693Zm-100.361-3.057,56.63,32.695v58.371l-56.63-32.693Zm64.233,91.066V305.637L352.2,294.73v12.663a3.8,3.8,0,0,0,5.694,3.3l13.434-7.71a3.8,3.8,0,0,0,1.91-3.3v-17.1l16.7-9.642v58.372Z" transform="translate(-119.457 -109.711)" fill="#4d539a"/>
  <path id="Path_19" data-name="Path 19" d="M130.735,120.374a3.8,3.8,0,0,0,1.9,3.293L196.87,160.75l.031.015a3.855,3.855,0,0,0,3.741,0l.031-.015,64.234-37.084a3.8,3.8,0,0,0,1.9-3.293V53.222c0-.011,0-.022,0-.033a3.819,3.819,0,0,0-1.871-3.24l-.028-.019L200.672,12.846a3.8,3.8,0,0,0-3.8,0L132.637,49.929a3.844,3.844,0,0,0-1.9,3.259c0,.011,0,.022,0,.033Zm7.6-60.567L194.969,92.5v58.371l-56.63-32.694Zm22.7-17.493,56.627,32.7L198.771,85.916l-56.63-32.695Zm13.431-7.754L234.9,69.448v14.9l-5.83,3.346V75.009c0-.011,0-.022,0-.033a3.816,3.816,0,0,0-.031-.464c0-.011,0-.021-.005-.032a3.875,3.875,0,0,0-.083-.412c-.01-.039-.021-.077-.032-.114-.032-.11-.069-.219-.112-.328-.015-.037-.028-.075-.044-.113a3.83,3.83,0,0,0-.2-.4l-.007-.011a3.736,3.736,0,0,0-.248-.371c-.024-.032-.05-.062-.075-.093q-.109-.137-.229-.262c-.027-.028-.054-.056-.082-.084a3.72,3.72,0,0,0-.317-.279l-.023-.02a3.872,3.872,0,0,0-.387-.259c-.01-.005-.018-.013-.028-.018L168.639,37.924Zm28.107,116.313V92.5l18.891-10.907V94.257a3.8,3.8,0,0,0,5.694,3.3l13.434-7.709a3.8,3.8,0,0,0,1.91-3.3V69.45l16.7-9.642V118.18ZM238.7,62.864,182.07,30.17l16.7-9.642L255.4,53.222Z" transform="translate(-59.728 -12.336)" fill="#4d539a"/>
</svg>
