<svg id="Reliable_SUppliers" data-name="Reliable SUppliers" xmlns="http://www.w3.org/2000/svg" width="278.085" height="278.06" viewBox="0 0 278.085 278.06">
  <path id="Path_21" data-name="Path 21" d="M269.808,74.152h-.992V41.38a22.868,22.868,0,0,0-22.845-22.845h-23.5a9.27,9.27,0,0,0-9.27-9.27H143.678a9.27,9.27,0,0,0-9.27,9.27v56.5a8.259,8.259,0,0,0-4.635,7.416V93.7a8.287,8.287,0,0,0,8.278,8.259h10.725a22.961,22.961,0,0,0,4.287,9.27H120.5V37.074a13.839,13.839,0,0,0-7.684-12.44L66.472,1.461a13.969,13.969,0,0,0-12.435,0L7.689,24.635A13.839,13.839,0,0,0,0,37.074v74.156a9.27,9.27,0,0,0,9.27,9.27H273.451a4.635,4.635,0,0,0,0-9.27h-18.66a22.961,22.961,0,0,0,4.287-9.27h10.729a8.287,8.287,0,0,0,8.278-8.278V82.43a8.287,8.287,0,0,0-8.278-8.278ZM245.971,27.8A13.584,13.584,0,0,1,259.546,41.38v4.964H243.654a2.646,2.646,0,0,1-2.646-2.646V27.8Zm-14.233,0V43.7a11.925,11.925,0,0,0,11.916,11.916h15.893V74.152H222.468V27.8ZM194.2,101.961h19.466a22.961,22.961,0,0,0,4.287,9.27H189.9a22.96,22.96,0,0,0,4.292-9.27Zm19.466-9.27H194.2a22.961,22.961,0,0,0-4.287-9.27h28.05a22.961,22.961,0,0,0-4.3,9.27ZM213.2,18.535V74.152H143.678V18.535ZM139.043,83.422h14.025a22.96,22.96,0,0,0-4.287,9.27h-9.738Zm18.539,13.9a13.9,13.9,0,1,1,13.9,13.9A13.9,13.9,0,0,1,157.582,97.326ZM9.27,37.074a4.607,4.607,0,0,1,2.563-4.148L58.18,9.753a4.755,4.755,0,0,1,4.143-.023L108.671,32.9a4.607,4.607,0,0,1,2.563,4.171v74.156h-9.27V46.344a9.27,9.27,0,0,0-9.27-9.27H27.809a9.27,9.27,0,0,0-9.27,9.27v64.887H9.27ZM74.156,92.691h-9.27v-9.27a9.27,9.27,0,0,0-9.27-9.27h-9.27a9.27,9.27,0,0,0-9.27,9.27v27.809h-9.27V64.883H92.7v46.348h-9.27v-9.27A9.27,9.27,0,0,0,74.156,92.691Zm-18.539,0h-9.27v-9.27h9.27ZM92.7,55.613H27.809v-9.27H92.7ZM46.348,101.961h9.27v9.27h-9.27Zm18.539,9.27v-9.27h9.27v9.27Zm157.582-13.9a13.9,13.9,0,1,1,13.9,13.9A13.9,13.9,0,0,1,222.468,97.326Zm46.348-4.635h-9.733a22.96,22.96,0,0,0-4.287-9.27h14.02Z" transform="translate(0 -0.001)" fill="#4d539a"/>
  <path id="Path_22" data-name="Path 22" d="M152.224,68.189,119.461,35.426a18.539,18.539,0,0,0-26.2,0l-7.23,7.23-7.615-7.23a18.539,18.539,0,0,0-26.21,0L19.424,68.189A18.539,18.539,0,0,0,19.5,94.468l9.27,8.857a13.821,13.821,0,0,0,10.776,21.686,13.635,13.635,0,0,0,13.075,13.116,14.057,14.057,0,0,0,4.018,9.13,13.83,13.83,0,0,0,9.144,4,13.761,13.761,0,0,0,21.7,10.66l3.064,3.04a13.927,13.927,0,0,0,23.48-7.068,14.242,14.242,0,0,0,1.6.148,13.849,13.849,0,0,0,13.863-13.112,13.853,13.853,0,0,0,13.093-13.079,13.7,13.7,0,0,0,9.089-4.083,13.9,13.9,0,0,0,0-19.624l-6.554-6.6,7.119-7.151A18.539,18.539,0,0,0,152.224,68.189Zm-116.643,43a4.635,4.635,0,0,1,1.39-3.3l6.581-6.535a4.607,4.607,0,1,1,6.489,6.526l-6.521,6.572a4.658,4.658,0,0,1-7.939-3.244Zm13.163,13.07a4.561,4.561,0,0,1,1.33-3.244h0l.593-.6,9.214-9.242a4.658,4.658,0,0,1,7.939,3.244,4.769,4.769,0,0,1-1.39,3.3L56.6,127.551a4.635,4.635,0,0,1-7.879-3.3Zm13.07,13.116a4.6,4.6,0,0,1,1.39-3.244l9.872-9.872,3.244-3.244a4.574,4.574,0,0,1,3.244-1.344,4.634,4.634,0,0,1,3.309,1.39,4.38,4.38,0,0,1,1.335,3.217,4.528,4.528,0,0,1-1.39,3.328l-13.065,13.07a4.635,4.635,0,0,1-6.558,0,4.732,4.732,0,0,1-1.381-3.3Zm14.493,16.37a4.635,4.635,0,0,1,0-6.512l9.9-9.9a4.6,4.6,0,0,1,7.819,3.008,4.881,4.881,0,0,0,.037.519,4.584,4.584,0,0,1-1.363,3.05l-8.343,8.3h0l-1.553,1.548a4.635,4.635,0,0,1-6.5-.009Zm27.345,4.612-.046.042a4.6,4.6,0,0,1-6.489-.032l-2.9-2.874,5.057-5.019a14.247,14.247,0,0,0,1.39-1.641l2.994,3.008a4.561,4.561,0,0,1,0,6.516Zm41.43-37.166a4.551,4.551,0,0,1-3.244,1.367h0a4.547,4.547,0,0,1-3.244-1.39l-.042-.028L122.177,104.8a4.634,4.634,0,1,0-6.554,6.554l16.361,16.36a4.607,4.607,0,0,1,0,6.563,4.746,4.746,0,0,1-6.549,0h-.028l-15.156-15.156a4.636,4.636,0,1,0-6.558,6.554l15.179,15.174a4.639,4.639,0,0,1-6.558,6.563l-2.123-2.123-7.161-7.2a14.062,14.062,0,0,0-3.787-7.277,13.784,13.784,0,0,0-6.127-3.49,14.142,14.142,0,0,0,.352-3.05,13.594,13.594,0,0,0-4.088-9.812,13.844,13.844,0,0,0-12.834-3.708,13.77,13.77,0,0,0-16.407-9.83A13.821,13.821,0,0,0,37,94.793l-1.854,1.831L25.969,87.85a9.27,9.27,0,0,1,0-13.1L58.732,41.989a9.427,9.427,0,0,1,13.2.06l7.522,7.114L64.85,63.832A16.222,16.222,0,1,0,87.755,86.8l14.766-14.757,42.6,42.612a4.635,4.635,0,0,1-.032,6.54Zm.579-33.37h0l-7.1,7.133-29.5-29.5h0a4.635,4.635,0,0,0-6.544-6.54L99.23,62.21,81.2,80.244a7.142,7.142,0,0,1-9.8,0,6.892,6.892,0,0,1,0-9.858L99.8,41.98a9.473,9.473,0,0,1,13.1,0l32.763,32.763a9.27,9.27,0,0,1,0,13.1Z" transform="translate(50.89 109.039)" fill="#4d539a"/>
  <path id="Path_23" data-name="Path 23" d="M15.635,13.27H24.9A4.635,4.635,0,0,0,24.9,4h-9.27a4.635,4.635,0,1,0,0,9.27Z" transform="translate(39.982 14.534)" fill="#4d539a"/>
  <path id="Path_24" data-name="Path 24" d="M38.635,20.27H71.078a4.635,4.635,0,0,0,0-9.27H38.635a4.635,4.635,0,0,0,0,9.27Z" transform="translate(123.582 39.978)" fill="#4d539a"/>
  <path id="Path_25" data-name="Path 25" d="M38.635,16.27H71.078a4.635,4.635,0,0,0,0-9.27H38.635a4.635,4.635,0,0,0,0,9.27Z" transform="translate(123.582 25.439)" fill="#4d539a"/>
</svg>
